<svg xmlns="http://www.w3.org/2000/svg" width="720" height="1280" viewBox="0 0 720 1280">
<defs>
  <linearGradient id="bgcakecelebrationpeacocktealglow" x1="0" y1="1" x2="1" y2="0">
    <stop offset="0" stop-color="#E9F8F5"/><stop offset="1" stop-color="#B4E2DC"/>
  </linearGradient>
  <radialGradient id="glowcakecelebrationpeacocktealglow" cx="0.5" cy="0.5" r="0.5">
    <stop offset="0" stop-color="#F4FCFB" stop-opacity="0.92"/><stop offset="0.62" stop-color="#F4FCFB" stop-opacity="0.5"/><stop offset="1" stop-color="#F4FCFB" stop-opacity="0"/>
  </radialGradient>
</defs>
<rect width="720" height="1280" fill="url(#bgcakecelebrationpeacocktealglow)"/>
<rect x="22" y="22" width="676" height="1236" fill="none" stroke="#B98F22" stroke-width="2.5"/><rect x="30" y="30" width="660" height="1220" fill="none" stroke="#B98F22" stroke-width="1" opacity="0.6"/>
    <g><rect x="230" y="1110" width="260" height="90" rx="10" fill="#128088"/>
      <rect x="252" y="1040" width="216" height="76" rx="10" fill="#0F6C94"/>
      <rect x="278" y="980" width="164" height="66" rx="10" fill="#B98F22"/>
      <path d="M230 1122 q 32 22 65 0 q 32 22 65 0 q 32 22 65 0 q 32 22 65 0" fill="none" stroke="#F4FCFB" stroke-width="8" stroke-linecap="round"/>
      <rect x="296" y="932" width="8" height="50" fill="#F4FCFB"/><path d="M300 932 q 8 -14 0 -26 q -8 12 0 26" fill="#FFC24A"/><rect x="356" y="932" width="8" height="50" fill="#F4FCFB"/><path d="M360 932 q 8 -14 0 -26 q -8 12 0 26" fill="#FFC24A"/><rect x="416" y="932" width="8" height="50" fill="#F4FCFB"/><path d="M420 932 q 8 -14 0 -26 q -8 12 0 26" fill="#FFC24A"/></g>
    <g opacity="0.6"><circle cx="120" cy="1000" r="60" fill="#B98F22" opacity="0.25"/><circle cx="600" cy="1000" r="60" fill="#B98F22" opacity="0.25"/></g>
    <circle cx="70" cy="60" r="5" fill="#128088"/><circle cx="100" cy="60" r="5" fill="#128088"/><circle cx="130" cy="60" r="5" fill="#128088"/><circle cx="160" cy="60" r="5" fill="#128088"/><circle cx="190" cy="60" r="5" fill="#128088"/><circle cx="220" cy="60" r="5" fill="#128088"/><circle cx="250" cy="60" r="5" fill="#128088"/><circle cx="280" cy="60" r="5" fill="#128088"/><circle cx="310" cy="60" r="5" fill="#128088"/><circle cx="340" cy="60" r="5" fill="#128088"/><circle cx="370" cy="60" r="5" fill="#128088"/><circle cx="400" cy="60" r="5" fill="#128088"/><circle cx="430" cy="60" r="5" fill="#128088"/><circle cx="460" cy="60" r="5" fill="#128088"/><circle cx="490" cy="60" r="5" fill="#128088"/><circle cx="520" cy="60" r="5" fill="#128088"/><circle cx="550" cy="60" r="5" fill="#128088"/><circle cx="580" cy="60" r="5" fill="#128088"/><circle cx="610" cy="60" r="5" fill="#128088"/><circle cx="640" cy="60" r="5" fill="#128088"/><circle cx="70" cy="1250" r="5" fill="#128088"/><circle cx="100" cy="1250" r="5" fill="#128088"/><circle cx="130" cy="1250" r="5" fill="#128088"/><circle cx="160" cy="1250" r="5" fill="#128088"/><circle cx="190" cy="1250" r="5" fill="#128088"/><circle cx="220" cy="1250" r="5" fill="#128088"/><circle cx="250" cy="1250" r="5" fill="#128088"/><circle cx="280" cy="1250" r="5" fill="#128088"/><circle cx="310" cy="1250" r="5" fill="#128088"/><circle cx="340" cy="1250" r="5" fill="#128088"/><circle cx="370" cy="1250" r="5" fill="#128088"/><circle cx="400" cy="1250" r="5" fill="#128088"/><circle cx="430" cy="1250" r="5" fill="#128088"/><circle cx="460" cy="1250" r="5" fill="#128088"/><circle cx="490" cy="1250" r="5" fill="#128088"/><circle cx="520" cy="1250" r="5" fill="#128088"/><circle cx="550" cy="1250" r="5" fill="#128088"/><circle cx="580" cy="1250" r="5" fill="#128088"/><circle cx="610" cy="1250" r="5" fill="#128088"/><circle cx="640" cy="1250" r="5" fill="#128088"/>

      <ellipse cx="360" cy="450" rx="356" ry="330" fill="url(#glowcakecelebrationpeacocktealglow)"/>
      <ellipse cx="360" cy="450" rx="300" ry="272" fill="none" stroke="#B98F22" stroke-width="1.2" opacity="0.35"/>
      <path d="M0 1130 L720 1058 L720 1280 L0 1280 Z" fill="#B98F22" opacity="0.14"/>
      <circle cx="90" cy="1218" r="4" fill="#B98F22"/><circle cx="132" cy="1218" r="4" fill="#B98F22"/><circle cx="174" cy="1218" r="4" fill="#B98F22"/><circle cx="216" cy="1218" r="4" fill="#B98F22"/><circle cx="258" cy="1218" r="4" fill="#B98F22"/><circle cx="300" cy="1218" r="4" fill="#B98F22"/><circle cx="342" cy="1218" r="4" fill="#B98F22"/><circle cx="384" cy="1218" r="4" fill="#B98F22"/><circle cx="426" cy="1218" r="4" fill="#B98F22"/><circle cx="468" cy="1218" r="4" fill="#B98F22"/><circle cx="510" cy="1218" r="4" fill="#B98F22"/><circle cx="552" cy="1218" r="4" fill="#B98F22"/><circle cx="594" cy="1218" r="4" fill="#B98F22"/>
</svg>