<svg xmlns="http://www.w3.org/2000/svg" width="720" height="1280" viewBox="0 0 720 1280">
<defs>
  <linearGradient id="bgpeacockfanivoryjadeglow" x1="0" y1="1" x2="1" y2="0">
    <stop offset="0" stop-color="#FBF8F0"/><stop offset="1" stop-color="#E4EEE0"/>
  </linearGradient>
  <radialGradient id="glowpeacockfanivoryjadeglow" cx="0.5" cy="0.5" r="0.5">
    <stop offset="0" stop-color="#FEFCF6" stop-opacity="0.92"/><stop offset="0.62" stop-color="#FEFCF6" stop-opacity="0.5"/><stop offset="1" stop-color="#FEFCF6" stop-opacity="0"/>
  </radialGradient>
</defs>
<rect width="720" height="1280" fill="url(#bgpeacockfanivoryjadeglow)"/>
<rect x="22" y="22" width="676" height="1236" fill="none" stroke="#B99B46" stroke-width="2.5"/><rect x="30" y="30" width="660" height="1220" fill="none" stroke="#B99B46" stroke-width="1" opacity="0.6"/>
    <g><g transform="translate(192 1250) rotate(-32)"><path d="M0 0 q -6 -70 0 -120 q 6 50 0 120 Z" fill="#8FAE86" opacity="0.75"/><ellipse cx="0" cy="-132" rx="20" ry="27" fill="#5F7A5B"/><ellipse cx="0" cy="-134" rx="12" ry="17" fill="#B99B46"/><ellipse cx="0" cy="-136" rx="6" ry="9" fill="#243A28"/></g><g transform="translate(234 1250) rotate(-24)"><path d="M0 0 q -6 -70 0 -120 q 6 50 0 120 Z" fill="#8FAE86" opacity="0.75"/><ellipse cx="0" cy="-132" rx="20" ry="27" fill="#5F7A5B"/><ellipse cx="0" cy="-134" rx="12" ry="17" fill="#B99B46"/><ellipse cx="0" cy="-136" rx="6" ry="9" fill="#243A28"/></g><g transform="translate(276 1250) rotate(-16)"><path d="M0 0 q -6 -70 0 -120 q 6 50 0 120 Z" fill="#8FAE86" opacity="0.75"/><ellipse cx="0" cy="-132" rx="20" ry="27" fill="#5F7A5B"/><ellipse cx="0" cy="-134" rx="12" ry="17" fill="#B99B46"/><ellipse cx="0" cy="-136" rx="6" ry="9" fill="#243A28"/></g><g transform="translate(318 1250) rotate(-8)"><path d="M0 0 q -6 -70 0 -120 q 6 50 0 120 Z" fill="#8FAE86" opacity="0.75"/><ellipse cx="0" cy="-132" rx="20" ry="27" fill="#5F7A5B"/><ellipse cx="0" cy="-134" rx="12" ry="17" fill="#B99B46"/><ellipse cx="0" cy="-136" rx="6" ry="9" fill="#243A28"/></g><g transform="translate(360 1250) rotate(0)"><path d="M0 0 q -6 -70 0 -120 q 6 50 0 120 Z" fill="#8FAE86" opacity="0.75"/><ellipse cx="0" cy="-132" rx="20" ry="27" fill="#5F7A5B"/><ellipse cx="0" cy="-134" rx="12" ry="17" fill="#B99B46"/><ellipse cx="0" cy="-136" rx="6" ry="9" fill="#243A28"/></g><g transform="translate(402 1250) rotate(8)"><path d="M0 0 q -6 -70 0 -120 q 6 50 0 120 Z" fill="#8FAE86" opacity="0.75"/><ellipse cx="0" cy="-132" rx="20" ry="27" fill="#5F7A5B"/><ellipse cx="0" cy="-134" rx="12" ry="17" fill="#B99B46"/><ellipse cx="0" cy="-136" rx="6" ry="9" fill="#243A28"/></g><g transform="translate(444 1250) rotate(16)"><path d="M0 0 q -6 -70 0 -120 q 6 50 0 120 Z" fill="#8FAE86" opacity="0.75"/><ellipse cx="0" cy="-132" rx="20" ry="27" fill="#5F7A5B"/><ellipse cx="0" cy="-134" rx="12" ry="17" fill="#B99B46"/><ellipse cx="0" cy="-136" rx="6" ry="9" fill="#243A28"/></g><g transform="translate(486 1250) rotate(24)"><path d="M0 0 q -6 -70 0 -120 q 6 50 0 120 Z" fill="#8FAE86" opacity="0.75"/><ellipse cx="0" cy="-132" rx="20" ry="27" fill="#5F7A5B"/><ellipse cx="0" cy="-134" rx="12" ry="17" fill="#B99B46"/><ellipse cx="0" cy="-136" rx="6" ry="9" fill="#243A28"/></g><g transform="translate(528 1250) rotate(32)"><path d="M0 0 q -6 -70 0 -120 q 6 50 0 120 Z" fill="#8FAE86" opacity="0.75"/><ellipse cx="0" cy="-132" rx="20" ry="27" fill="#5F7A5B"/><ellipse cx="0" cy="-134" rx="12" ry="17" fill="#B99B46"/><ellipse cx="0" cy="-136" rx="6" ry="9" fill="#243A28"/></g></g>
    <ellipse cx="360" cy="1258" rx="210" ry="34" fill="#243A28" opacity="0.25"/>
    <g opacity="0.85"><ellipse cx="0" cy="-88" rx="14" ry="88" fill="#5F7A5B" stroke="#B99B46" stroke-width="1.2" opacity="0.9" transform="translate(360 132) rotate(0)"/><ellipse cx="0" cy="-88" rx="14" ry="88" fill="#5F7A5B" stroke="#B99B46" stroke-width="1.2" opacity="0.9" transform="translate(360 132) rotate(30)"/><ellipse cx="0" cy="-88" rx="14" ry="88" fill="#5F7A5B" stroke="#B99B46" stroke-width="1.2" opacity="0.9" transform="translate(360 132) rotate(60)"/><ellipse cx="0" cy="-88" rx="14" ry="88" fill="#5F7A5B" stroke="#B99B46" stroke-width="1.2" opacity="0.9" transform="translate(360 132) rotate(90)"/><ellipse cx="0" cy="-88" rx="14" ry="88" fill="#5F7A5B" stroke="#B99B46" stroke-width="1.2" opacity="0.9" transform="translate(360 132) rotate(120)"/><ellipse cx="0" cy="-88" rx="14" ry="88" fill="#5F7A5B" stroke="#B99B46" stroke-width="1.2" opacity="0.9" transform="translate(360 132) rotate(150)"/><ellipse cx="0" cy="-88" rx="14" ry="88" fill="#5F7A5B" stroke="#B99B46" stroke-width="1.2" opacity="0.9" transform="translate(360 132) rotate(180)"/><ellipse cx="0" cy="-88" rx="14" ry="88" fill="#5F7A5B" stroke="#B99B46" stroke-width="1.2" opacity="0.9" transform="translate(360 132) rotate(210)"/><ellipse cx="0" cy="-88" rx="14" ry="88" fill="#5F7A5B" stroke="#B99B46" stroke-width="1.2" opacity="0.9" transform="translate(360 132) rotate(240)"/><ellipse cx="0" cy="-88" rx="14" ry="88" fill="#5F7A5B" stroke="#B99B46" stroke-width="1.2" opacity="0.9" transform="translate(360 132) rotate(270)"/><ellipse cx="0" cy="-88" rx="14" ry="88" fill="#5F7A5B" stroke="#B99B46" stroke-width="1.2" opacity="0.9" transform="translate(360 132) rotate(300)"/><ellipse cx="0" cy="-88" rx="14" ry="88" fill="#5F7A5B" stroke="#B99B46" stroke-width="1.2" opacity="0.9" transform="translate(360 132) rotate(330)"/><circle cx="360" cy="132" r="26" fill="#FEFCF6"/></g>
    <circle cx="70" cy="48" r="4" fill="#B99B46"/><circle cx="98" cy="48" r="4" fill="#B99B46"/><circle cx="126" cy="48" r="4" fill="#B99B46"/><circle cx="154" cy="48" r="4" fill="#B99B46"/><circle cx="182" cy="48" r="4" fill="#B99B46"/><circle cx="210" cy="48" r="4" fill="#B99B46"/><circle cx="238" cy="48" r="4" fill="#B99B46"/><circle cx="266" cy="48" r="4" fill="#B99B46"/><circle cx="294" cy="48" r="4" fill="#B99B46"/><circle cx="322" cy="48" r="4" fill="#B99B46"/><circle cx="350" cy="48" r="4" fill="#B99B46"/><circle cx="378" cy="48" r="4" fill="#B99B46"/><circle cx="406" cy="48" r="4" fill="#B99B46"/><circle cx="434" cy="48" r="4" fill="#B99B46"/><circle cx="462" cy="48" r="4" fill="#B99B46"/><circle cx="490" cy="48" r="4" fill="#B99B46"/><circle cx="518" cy="48" r="4" fill="#B99B46"/><circle cx="546" cy="48" r="4" fill="#B99B46"/><circle cx="574" cy="48" r="4" fill="#B99B46"/><circle cx="602" cy="48" r="4" fill="#B99B46"/><circle cx="630" cy="48" r="4" fill="#B99B46"/>

      <ellipse cx="360" cy="450" rx="356" ry="330" fill="url(#glowpeacockfanivoryjadeglow)"/>
      <ellipse cx="360" cy="450" rx="300" ry="272" fill="none" stroke="#B99B46" stroke-width="1.2" opacity="0.35"/>
      <path d="M0 1130 L720 1058 L720 1280 L0 1280 Z" fill="#B99B46" opacity="0.14"/>
      <circle cx="90" cy="1218" r="4" fill="#B99B46"/><circle cx="132" cy="1218" r="4" fill="#B99B46"/><circle cx="174" cy="1218" r="4" fill="#B99B46"/><circle cx="216" cy="1218" r="4" fill="#B99B46"/><circle cx="258" cy="1218" r="4" fill="#B99B46"/><circle cx="300" cy="1218" r="4" fill="#B99B46"/><circle cx="342" cy="1218" r="4" fill="#B99B46"/><circle cx="384" cy="1218" r="4" fill="#B99B46"/><circle cx="426" cy="1218" r="4" fill="#B99B46"/><circle cx="468" cy="1218" r="4" fill="#B99B46"/><circle cx="510" cy="1218" r="4" fill="#B99B46"/><circle cx="552" cy="1218" r="4" fill="#B99B46"/><circle cx="594" cy="1218" r="4" fill="#B99B46"/>
</svg>