<svg xmlns="http://www.w3.org/2000/svg" width="720" height="1280" viewBox="0 0 720 1280">
<defs>
  <linearGradient id="bgjalibandivoryjadearch" x1="0" y1="0" x2="1" y2="1">
    <stop offset="0" stop-color="#FBF8F0"/><stop offset="1" stop-color="#E4EEE0"/>
  </linearGradient>
  
</defs>
<rect width="720" height="1280" fill="url(#bgjalibandivoryjadearch)"/>
<g opacity="0.6" stroke="#B99B46" stroke-width="1.6" fill="none">
      <rect x="-20" y="24" width="48" height="48" transform="rotate(45 4 48)"/><rect x="64" y="24" width="48" height="48" transform="rotate(45 88 48)"/><rect x="148" y="24" width="48" height="48" transform="rotate(45 172 48)"/><rect x="232" y="24" width="48" height="48" transform="rotate(45 256 48)"/><rect x="316" y="24" width="48" height="48" transform="rotate(45 340 48)"/><rect x="400" y="24" width="48" height="48" transform="rotate(45 424 48)"/><rect x="484" y="24" width="48" height="48" transform="rotate(45 508 48)"/><rect x="568" y="24" width="48" height="48" transform="rotate(45 592 48)"/><rect x="652" y="24" width="48" height="48" transform="rotate(45 676 48)"/><rect x="-20" y="58" width="48" height="48" transform="rotate(45 4 82)"/><rect x="64" y="58" width="48" height="48" transform="rotate(45 88 82)"/><rect x="148" y="58" width="48" height="48" transform="rotate(45 172 82)"/><rect x="232" y="58" width="48" height="48" transform="rotate(45 256 82)"/><rect x="316" y="58" width="48" height="48" transform="rotate(45 340 82)"/><rect x="400" y="58" width="48" height="48" transform="rotate(45 424 82)"/><rect x="484" y="58" width="48" height="48" transform="rotate(45 508 82)"/><rect x="568" y="58" width="48" height="48" transform="rotate(45 592 82)"/><rect x="652" y="58" width="48" height="48" transform="rotate(45 676 82)"/><rect x="-20" y="92" width="48" height="48" transform="rotate(45 4 116)"/><rect x="64" y="92" width="48" height="48" transform="rotate(45 88 116)"/><rect x="148" y="92" width="48" height="48" transform="rotate(45 172 116)"/><rect x="232" y="92" width="48" height="48" transform="rotate(45 256 116)"/><rect x="316" y="92" width="48" height="48" transform="rotate(45 340 116)"/><rect x="400" y="92" width="48" height="48" transform="rotate(45 424 116)"/><rect x="484" y="92" width="48" height="48" transform="rotate(45 508 116)"/><rect x="568" y="92" width="48" height="48" transform="rotate(45 592 116)"/><rect x="652" y="92" width="48" height="48" transform="rotate(45 676 116)"/><rect x="-20" y="126" width="48" height="48" transform="rotate(45 4 150)"/><rect x="64" y="126" width="48" height="48" transform="rotate(45 88 150)"/><rect x="148" y="126" width="48" height="48" transform="rotate(45 172 150)"/><rect x="232" y="126" width="48" height="48" transform="rotate(45 256 150)"/><rect x="316" y="126" width="48" height="48" transform="rotate(45 340 150)"/><rect x="400" y="126" width="48" height="48" transform="rotate(45 424 150)"/><rect x="484" y="126" width="48" height="48" transform="rotate(45 508 150)"/><rect x="568" y="126" width="48" height="48" transform="rotate(45 592 150)"/><rect x="652" y="126" width="48" height="48" transform="rotate(45 676 150)"/><rect x="-20" y="160" width="48" height="48" transform="rotate(45 4 184)"/><rect x="64" y="160" width="48" height="48" transform="rotate(45 88 184)"/><rect x="148" y="160" width="48" height="48" transform="rotate(45 172 184)"/><rect x="232" y="160" width="48" height="48" transform="rotate(45 256 184)"/><rect x="316" y="160" width="48" height="48" transform="rotate(45 340 184)"/><rect x="400" y="160" width="48" height="48" transform="rotate(45 424 184)"/><rect x="484" y="160" width="48" height="48" transform="rotate(45 508 184)"/><rect x="568" y="160" width="48" height="48" transform="rotate(45 592 184)"/><rect x="652" y="160" width="48" height="48" transform="rotate(45 676 184)"/></g><rect x="0" y="200" width="720" height="6" fill="#B99B46"/>
      <rect x="0" y="206" width="720" height="6" fill="#5F7A5B" opacity="0.7"/>
      <g opacity="0.6" stroke="#B99B46" stroke-width="1.6" fill="none">
      <rect x="-20" y="1050" width="48" height="48" transform="rotate(45 4 1074)"/><rect x="64" y="1050" width="48" height="48" transform="rotate(45 88 1074)"/><rect x="148" y="1050" width="48" height="48" transform="rotate(45 172 1074)"/><rect x="232" y="1050" width="48" height="48" transform="rotate(45 256 1074)"/><rect x="316" y="1050" width="48" height="48" transform="rotate(45 340 1074)"/><rect x="400" y="1050" width="48" height="48" transform="rotate(45 424 1074)"/><rect x="484" y="1050" width="48" height="48" transform="rotate(45 508 1074)"/><rect x="568" y="1050" width="48" height="48" transform="rotate(45 592 1074)"/><rect x="652" y="1050" width="48" height="48" transform="rotate(45 676 1074)"/><rect x="-20" y="1084" width="48" height="48" transform="rotate(45 4 1108)"/><rect x="64" y="1084" width="48" height="48" transform="rotate(45 88 1108)"/><rect x="148" y="1084" width="48" height="48" transform="rotate(45 172 1108)"/><rect x="232" y="1084" width="48" height="48" transform="rotate(45 256 1108)"/><rect x="316" y="1084" width="48" height="48" transform="rotate(45 340 1108)"/><rect x="400" y="1084" width="48" height="48" transform="rotate(45 424 1108)"/><rect x="484" y="1084" width="48" height="48" transform="rotate(45 508 1108)"/><rect x="568" y="1084" width="48" height="48" transform="rotate(45 592 1108)"/><rect x="652" y="1084" width="48" height="48" transform="rotate(45 676 1108)"/><rect x="-20" y="1118" width="48" height="48" transform="rotate(45 4 1142)"/><rect x="64" y="1118" width="48" height="48" transform="rotate(45 88 1142)"/><rect x="148" y="1118" width="48" height="48" transform="rotate(45 172 1142)"/><rect x="232" y="1118" width="48" height="48" transform="rotate(45 256 1142)"/><rect x="316" y="1118" width="48" height="48" transform="rotate(45 340 1142)"/><rect x="400" y="1118" width="48" height="48" transform="rotate(45 424 1142)"/><rect x="484" y="1118" width="48" height="48" transform="rotate(45 508 1142)"/><rect x="568" y="1118" width="48" height="48" transform="rotate(45 592 1142)"/><rect x="652" y="1118" width="48" height="48" transform="rotate(45 676 1142)"/><rect x="-20" y="1152" width="48" height="48" transform="rotate(45 4 1176)"/><rect x="64" y="1152" width="48" height="48" transform="rotate(45 88 1176)"/><rect x="148" y="1152" width="48" height="48" transform="rotate(45 172 1176)"/><rect x="232" y="1152" width="48" height="48" transform="rotate(45 256 1176)"/><rect x="316" y="1152" width="48" height="48" transform="rotate(45 340 1176)"/><rect x="400" y="1152" width="48" height="48" transform="rotate(45 424 1176)"/><rect x="484" y="1152" width="48" height="48" transform="rotate(45 508 1176)"/><rect x="568" y="1152" width="48" height="48" transform="rotate(45 592 1176)"/><rect x="652" y="1152" width="48" height="48" transform="rotate(45 676 1176)"/><rect x="-20" y="1186" width="48" height="48" transform="rotate(45 4 1210)"/><rect x="64" y="1186" width="48" height="48" transform="rotate(45 88 1210)"/><rect x="148" y="1186" width="48" height="48" transform="rotate(45 172 1210)"/><rect x="232" y="1186" width="48" height="48" transform="rotate(45 256 1210)"/><rect x="316" y="1186" width="48" height="48" transform="rotate(45 340 1210)"/><rect x="400" y="1186" width="48" height="48" transform="rotate(45 424 1210)"/><rect x="484" y="1186" width="48" height="48" transform="rotate(45 508 1210)"/><rect x="568" y="1186" width="48" height="48" transform="rotate(45 592 1210)"/><rect x="652" y="1186" width="48" height="48" transform="rotate(45 676 1210)"/></g><rect x="0" y="1044" width="720" height="6" fill="#B99B46"/>
      <rect x="250" y="250" width="220" height="780" fill="none" stroke="#B99B46" stroke-width="1"/><rect x="258" y="258" width="204" height="764" fill="none" stroke="#B99B46" stroke-width="1" opacity="0.6"/>
      <circle cx="120" cy="232" r="12" fill="#5F7A5B"/><circle cx="120" cy="232" r="7.4399999999999995" fill="#8FAE86" opacity="0.85"/><circle cx="120" cy="232" r="3.3600000000000003" fill="#B99B46"/><circle cx="360" cy="232" r="12" fill="#5F7A5B"/><circle cx="360" cy="232" r="7.4399999999999995" fill="#8FAE86" opacity="0.85"/><circle cx="360" cy="232" r="3.3600000000000003" fill="#B99B46"/><circle cx="600" cy="232" r="12" fill="#5F7A5B"/><circle cx="600" cy="232" r="7.4399999999999995" fill="#8FAE86" opacity="0.85"/><circle cx="600" cy="232" r="3.3600000000000003" fill="#B99B46"/>

      <path d="M140 0 Q140 196 360 196 Q580 196 580 0" fill="none" stroke="#B99B46" stroke-width="6" opacity="0.85"/>
      <path d="M96 0 Q96 252 360 252 Q624 252 624 0" fill="none" stroke="#5F7A5B" stroke-width="2.5" opacity="0.5"/>
      <circle cx="180" cy="149.6" r="7" fill="#5F7A5B"/><circle cx="260" cy="172" r="7" fill="#5F7A5B"/><circle cx="360" cy="200" r="7" fill="#5F7A5B"/><circle cx="460" cy="172" r="7" fill="#5F7A5B"/><circle cx="540" cy="149.6" r="7" fill="#5F7A5B"/>
      <rect x="0" y="1196" width="720" height="9" fill="#B99B46" opacity="0.6"/>
      <rect x="0" y="1218" width="720" height="62" fill="#243A28" opacity="0.18"/>
      <circle cx="90" cy="1249" r="5" fill="#B99B46"/><circle cx="136" cy="1249" r="5" fill="#B99B46"/><circle cx="182" cy="1249" r="5" fill="#B99B46"/><circle cx="228" cy="1249" r="5" fill="#B99B46"/><circle cx="274" cy="1249" r="5" fill="#B99B46"/><circle cx="320" cy="1249" r="5" fill="#B99B46"/><circle cx="366" cy="1249" r="5" fill="#B99B46"/><circle cx="412" cy="1249" r="5" fill="#B99B46"/><circle cx="458" cy="1249" r="5" fill="#B99B46"/><circle cx="504" cy="1249" r="5" fill="#B99B46"/><circle cx="550" cy="1249" r="5" fill="#B99B46"/><circle cx="596" cy="1249" r="5" fill="#B99B46"/>
</svg>