<svg xmlns="http://www.w3.org/2000/svg" width="720" height="1280" viewBox="0 0 720 1280">
<defs>
  <linearGradient id="bglotuspondivoryjadeglow" x1="0" y1="1" x2="1" y2="0">
    <stop offset="0" stop-color="#FBF8F0"/><stop offset="1" stop-color="#E4EEE0"/>
  </linearGradient>
  <radialGradient id="glowlotuspondivoryjadeglow" cx="0.5" cy="0.5" r="0.5">
    <stop offset="0" stop-color="#FEFCF6" stop-opacity="0.92"/><stop offset="0.62" stop-color="#FEFCF6" stop-opacity="0.5"/><stop offset="1" stop-color="#FEFCF6" stop-opacity="0"/>
  </radialGradient>
</defs>
<rect width="720" height="1280" fill="url(#bglotuspondivoryjadeglow)"/>
<rect x="22" y="22" width="676" height="1236" fill="none" stroke="#B99B46" stroke-width="2.5"/><rect x="30" y="30" width="660" height="1220" fill="none" stroke="#B99B46" stroke-width="1" opacity="0.6"/>
    <g opacity="0.5" stroke="#8FAE86" fill="none" stroke-width="1.6">
      <path d="M40 1010 Q180 992 360 1010 Q540 1028 680 1010"/><path d="M40 1060 Q180 1042 360 1060 Q540 1078 680 1060"/><path d="M40 1110 Q180 1092 360 1110 Q540 1128 680 1110"/><path d="M40 1160 Q180 1142 360 1160 Q540 1178 680 1160"/><path d="M40 1210 Q180 1192 360 1210 Q540 1228 680 1210"/>
    </g>
    <ellipse cx="0" cy="-44.199999999999996" rx="13.6" ry="44.199999999999996" fill="#5F7A5B" stroke="#B99B46" stroke-width="1.2" opacity="0.9" transform="translate(190 1060.2) rotate(10)"/><ellipse cx="0" cy="-44.199999999999996" rx="13.6" ry="44.199999999999996" fill="#5F7A5B" stroke="#B99B46" stroke-width="1.2" opacity="0.9" transform="translate(190 1060.2) rotate(50)"/><ellipse cx="0" cy="-44.199999999999996" rx="13.6" ry="44.199999999999996" fill="#5F7A5B" stroke="#B99B46" stroke-width="1.2" opacity="0.9" transform="translate(190 1060.2) rotate(90)"/><ellipse cx="0" cy="-44.199999999999996" rx="13.6" ry="44.199999999999996" fill="#5F7A5B" stroke="#B99B46" stroke-width="1.2" opacity="0.9" transform="translate(190 1060.2) rotate(130)"/><ellipse cx="0" cy="-44.199999999999996" rx="13.6" ry="44.199999999999996" fill="#5F7A5B" stroke="#B99B46" stroke-width="1.2" opacity="0.9" transform="translate(190 1060.2) rotate(170)"/><ellipse cx="0" cy="-44.199999999999996" rx="13.6" ry="44.199999999999996" fill="#5F7A5B" stroke="#B99B46" stroke-width="1.2" opacity="0.9" transform="translate(190 1060.2) rotate(210)"/><ellipse cx="0" cy="-44.199999999999996" rx="13.6" ry="44.199999999999996" fill="#5F7A5B" stroke="#B99B46" stroke-width="1.2" opacity="0.9" transform="translate(190 1060.2) rotate(250)"/><ellipse cx="0" cy="-44.199999999999996" rx="13.6" ry="44.199999999999996" fill="#5F7A5B" stroke="#B99B46" stroke-width="1.2" opacity="0.9" transform="translate(190 1060.2) rotate(290)"/><ellipse cx="0" cy="-44.199999999999996" rx="13.6" ry="44.199999999999996" fill="#5F7A5B" stroke="#B99B46" stroke-width="1.2" opacity="0.9" transform="translate(190 1060.2) rotate(330)"/><ellipse cx="0" cy="-30.599999999999998" rx="10.2" ry="30.599999999999998" fill="#8FAE86" stroke="#B99B46" stroke-width="1.2" opacity="0.9" transform="translate(190 1053.4) rotate(25)"/><ellipse cx="0" cy="-30.599999999999998" rx="10.2" ry="30.599999999999998" fill="#8FAE86" stroke="#B99B46" stroke-width="1.2" opacity="0.9" transform="translate(190 1053.4) rotate(76.42857142857142)"/><ellipse cx="0" cy="-30.599999999999998" rx="10.2" ry="30.599999999999998" fill="#8FAE86" stroke="#B99B46" stroke-width="1.2" opacity="0.9" transform="translate(190 1053.4) rotate(127.85714285714285)"/><ellipse cx="0" cy="-30.599999999999998" rx="10.2" ry="30.599999999999998" fill="#8FAE86" stroke="#B99B46" stroke-width="1.2" opacity="0.9" transform="translate(190 1053.4) rotate(179.28571428571428)"/><ellipse cx="0" cy="-30.599999999999998" rx="10.2" ry="30.599999999999998" fill="#8FAE86" stroke="#B99B46" stroke-width="1.2" opacity="0.9" transform="translate(190 1053.4) rotate(230.7142857142857)"/><ellipse cx="0" cy="-30.599999999999998" rx="10.2" ry="30.599999999999998" fill="#8FAE86" stroke="#B99B46" stroke-width="1.2" opacity="0.9" transform="translate(190 1053.4) rotate(282.14285714285717)"/><ellipse cx="0" cy="-30.599999999999998" rx="10.2" ry="30.599999999999998" fill="#8FAE86" stroke="#B99B46" stroke-width="1.2" opacity="0.9" transform="translate(190 1053.4) rotate(333.57142857142856)"/><circle cx="190" cy="1050" r="11.9" fill="#B99B46"/><ellipse cx="0" cy="-36.4" rx="11.2" ry="36.4" fill="#5F7A5B" stroke="#B99B46" stroke-width="1.2" opacity="0.9" transform="translate(530 1128.4) rotate(10)"/><ellipse cx="0" cy="-36.4" rx="11.2" ry="36.4" fill="#5F7A5B" stroke="#B99B46" stroke-width="1.2" opacity="0.9" transform="translate(530 1128.4) rotate(50)"/><ellipse cx="0" cy="-36.4" rx="11.2" ry="36.4" fill="#5F7A5B" stroke="#B99B46" stroke-width="1.2" opacity="0.9" transform="translate(530 1128.4) rotate(90)"/><ellipse cx="0" cy="-36.4" rx="11.2" ry="36.4" fill="#5F7A5B" stroke="#B99B46" stroke-width="1.2" opacity="0.9" transform="translate(530 1128.4) rotate(130)"/><ellipse cx="0" cy="-36.4" rx="11.2" ry="36.4" fill="#5F7A5B" stroke="#B99B46" stroke-width="1.2" opacity="0.9" transform="translate(530 1128.4) rotate(170)"/><ellipse cx="0" cy="-36.4" rx="11.2" ry="36.4" fill="#5F7A5B" stroke="#B99B46" stroke-width="1.2" opacity="0.9" transform="translate(530 1128.4) rotate(210)"/><ellipse cx="0" cy="-36.4" rx="11.2" ry="36.4" fill="#5F7A5B" stroke="#B99B46" stroke-width="1.2" opacity="0.9" transform="translate(530 1128.4) rotate(250)"/><ellipse cx="0" cy="-36.4" rx="11.2" ry="36.4" fill="#5F7A5B" stroke="#B99B46" stroke-width="1.2" opacity="0.9" transform="translate(530 1128.4) rotate(290)"/><ellipse cx="0" cy="-36.4" rx="11.2" ry="36.4" fill="#5F7A5B" stroke="#B99B46" stroke-width="1.2" opacity="0.9" transform="translate(530 1128.4) rotate(330)"/><ellipse cx="0" cy="-25.2" rx="8.399999999999999" ry="25.2" fill="#8FAE86" stroke="#B99B46" stroke-width="1.2" opacity="0.9" transform="translate(530 1122.8) rotate(25)"/><ellipse cx="0" cy="-25.2" rx="8.399999999999999" ry="25.2" fill="#8FAE86" stroke="#B99B46" stroke-width="1.2" opacity="0.9" transform="translate(530 1122.8) rotate(76.42857142857142)"/><ellipse cx="0" cy="-25.2" rx="8.399999999999999" ry="25.2" fill="#8FAE86" stroke="#B99B46" stroke-width="1.2" opacity="0.9" transform="translate(530 1122.8) rotate(127.85714285714285)"/><ellipse cx="0" cy="-25.2" rx="8.399999999999999" ry="25.2" fill="#8FAE86" stroke="#B99B46" stroke-width="1.2" opacity="0.9" transform="translate(530 1122.8) rotate(179.28571428571428)"/><ellipse cx="0" cy="-25.2" rx="8.399999999999999" ry="25.2" fill="#8FAE86" stroke="#B99B46" stroke-width="1.2" opacity="0.9" transform="translate(530 1122.8) rotate(230.7142857142857)"/><ellipse cx="0" cy="-25.2" rx="8.399999999999999" ry="25.2" fill="#8FAE86" stroke="#B99B46" stroke-width="1.2" opacity="0.9" transform="translate(530 1122.8) rotate(282.14285714285717)"/><ellipse cx="0" cy="-25.2" rx="8.399999999999999" ry="25.2" fill="#8FAE86" stroke="#B99B46" stroke-width="1.2" opacity="0.9" transform="translate(530 1122.8) rotate(333.57142857142856)"/><circle cx="530" cy="1120" r="9.799999999999999" fill="#B99B46"/><ellipse cx="0" cy="-28.6" rx="8.8" ry="28.6" fill="#5F7A5B" stroke="#B99B46" stroke-width="1.2" opacity="0.9" transform="translate(360 1201.6) rotate(10)"/><ellipse cx="0" cy="-28.6" rx="8.8" ry="28.6" fill="#5F7A5B" stroke="#B99B46" stroke-width="1.2" opacity="0.9" transform="translate(360 1201.6) rotate(50)"/><ellipse cx="0" cy="-28.6" rx="8.8" ry="28.6" fill="#5F7A5B" stroke="#B99B46" stroke-width="1.2" opacity="0.9" transform="translate(360 1201.6) rotate(90)"/><ellipse cx="0" cy="-28.6" rx="8.8" ry="28.6" fill="#5F7A5B" stroke="#B99B46" stroke-width="1.2" opacity="0.9" transform="translate(360 1201.6) rotate(130)"/><ellipse cx="0" cy="-28.6" rx="8.8" ry="28.6" fill="#5F7A5B" stroke="#B99B46" stroke-width="1.2" opacity="0.9" transform="translate(360 1201.6) rotate(170)"/><ellipse cx="0" cy="-28.6" rx="8.8" ry="28.6" fill="#5F7A5B" stroke="#B99B46" stroke-width="1.2" opacity="0.9" transform="translate(360 1201.6) rotate(210)"/><ellipse cx="0" cy="-28.6" rx="8.8" ry="28.6" fill="#5F7A5B" stroke="#B99B46" stroke-width="1.2" opacity="0.9" transform="translate(360 1201.6) rotate(250)"/><ellipse cx="0" cy="-28.6" rx="8.8" ry="28.6" fill="#5F7A5B" stroke="#B99B46" stroke-width="1.2" opacity="0.9" transform="translate(360 1201.6) rotate(290)"/><ellipse cx="0" cy="-28.6" rx="8.8" ry="28.6" fill="#5F7A5B" stroke="#B99B46" stroke-width="1.2" opacity="0.9" transform="translate(360 1201.6) rotate(330)"/><ellipse cx="0" cy="-19.8" rx="6.6000000000000005" ry="19.8" fill="#8FAE86" stroke="#B99B46" stroke-width="1.2" opacity="0.9" transform="translate(360 1197.2) rotate(25)"/><ellipse cx="0" cy="-19.8" rx="6.6000000000000005" ry="19.8" fill="#8FAE86" stroke="#B99B46" stroke-width="1.2" opacity="0.9" transform="translate(360 1197.2) rotate(76.42857142857142)"/><ellipse cx="0" cy="-19.8" rx="6.6000000000000005" ry="19.8" fill="#8FAE86" stroke="#B99B46" stroke-width="1.2" opacity="0.9" transform="translate(360 1197.2) rotate(127.85714285714285)"/><ellipse cx="0" cy="-19.8" rx="6.6000000000000005" ry="19.8" fill="#8FAE86" stroke="#B99B46" stroke-width="1.2" opacity="0.9" transform="translate(360 1197.2) rotate(179.28571428571428)"/><ellipse cx="0" cy="-19.8" rx="6.6000000000000005" ry="19.8" fill="#8FAE86" stroke="#B99B46" stroke-width="1.2" opacity="0.9" transform="translate(360 1197.2) rotate(230.7142857142857)"/><ellipse cx="0" cy="-19.8" rx="6.6000000000000005" ry="19.8" fill="#8FAE86" stroke="#B99B46" stroke-width="1.2" opacity="0.9" transform="translate(360 1197.2) rotate(282.14285714285717)"/><ellipse cx="0" cy="-19.8" rx="6.6000000000000005" ry="19.8" fill="#8FAE86" stroke="#B99B46" stroke-width="1.2" opacity="0.9" transform="translate(360 1197.2) rotate(333.57142857142856)"/><circle cx="360" cy="1195" r="7.700000000000001" fill="#B99B46"/>
    <path d="M0 0 Q 38.5 -46.199999999999996 110 0 Q 38.5 46.199999999999996 0 0 Z" fill="#8FAE86" transform="translate(120 1000) rotate(300)"/><path d="M0 0 Q 38.5 -46.199999999999996 110 0 Q 38.5 46.199999999999996 0 0 Z" fill="#8FAE86" transform="translate(620 1000) rotate(220)"/>
    <g opacity="0.4"><circle cx="120" cy="150" r="26" fill="#B99B46"/><circle cx="260" cy="172" r="23" fill="#B99B46"/><circle cx="400" cy="194" r="20" fill="#B99B46"/><circle cx="540" cy="216" r="17" fill="#B99B46"/><circle cx="640" cy="238" r="14" fill="#B99B46"/></g>
    <circle cx="60" cy="60" r="5" fill="#B99B46"/><circle cx="92" cy="60" r="5" fill="#B99B46"/><circle cx="124" cy="60" r="5" fill="#B99B46"/><circle cx="156" cy="60" r="5" fill="#B99B46"/><circle cx="188" cy="60" r="5" fill="#B99B46"/><circle cx="220" cy="60" r="5" fill="#B99B46"/><circle cx="252" cy="60" r="5" fill="#B99B46"/><circle cx="284" cy="60" r="5" fill="#B99B46"/><circle cx="316" cy="60" r="5" fill="#B99B46"/><circle cx="348" cy="60" r="5" fill="#B99B46"/><circle cx="380" cy="60" r="5" fill="#B99B46"/><circle cx="412" cy="60" r="5" fill="#B99B46"/><circle cx="444" cy="60" r="5" fill="#B99B46"/><circle cx="476" cy="60" r="5" fill="#B99B46"/><circle cx="508" cy="60" r="5" fill="#B99B46"/><circle cx="540" cy="60" r="5" fill="#B99B46"/><circle cx="572" cy="60" r="5" fill="#B99B46"/><circle cx="604" cy="60" r="5" fill="#B99B46"/><circle cx="636" cy="60" r="5" fill="#B99B46"/>

      <ellipse cx="360" cy="450" rx="356" ry="330" fill="url(#glowlotuspondivoryjadeglow)"/>
      <ellipse cx="360" cy="450" rx="300" ry="272" fill="none" stroke="#B99B46" stroke-width="1.2" opacity="0.35"/>
      <path d="M0 1130 L720 1058 L720 1280 L0 1280 Z" fill="#B99B46" opacity="0.14"/>
      <circle cx="90" cy="1218" r="4" fill="#B99B46"/><circle cx="132" cy="1218" r="4" fill="#B99B46"/><circle cx="174" cy="1218" r="4" fill="#B99B46"/><circle cx="216" cy="1218" r="4" fill="#B99B46"/><circle cx="258" cy="1218" r="4" fill="#B99B46"/><circle cx="300" cy="1218" r="4" fill="#B99B46"/><circle cx="342" cy="1218" r="4" fill="#B99B46"/><circle cx="384" cy="1218" r="4" fill="#B99B46"/><circle cx="426" cy="1218" r="4" fill="#B99B46"/><circle cx="468" cy="1218" r="4" fill="#B99B46"/><circle cx="510" cy="1218" r="4" fill="#B99B46"/><circle cx="552" cy="1218" r="4" fill="#B99B46"/><circle cx="594" cy="1218" r="4" fill="#B99B46"/>
</svg>