<svg xmlns="http://www.w3.org/2000/svg" width="720" height="1280" viewBox="0 0 720 1280">
<defs>
  <linearGradient id="bgmarblepillarsaffrontempleborder" x1="0" y1="0" x2="0" y2="1">
    <stop offset="0" stop-color="#FFF3D9"/><stop offset="1" stop-color="#F6CB76"/>
  </linearGradient>
  
</defs>
<rect width="720" height="1280" fill="url(#bgmarblepillarsaffrontempleborder)"/>

    <rect x="46" y="120" width="56" height="1160" fill="#4E250A" opacity="0.18"/>
    <rect x="618" y="120" width="56" height="1160" fill="#4E250A" opacity="0.18"/>
    <rect x="34" y="96" width="80" height="30" rx="6" fill="#A9760A"/><rect x="606" y="96" width="80" height="30" rx="6" fill="#A9760A"/>
    <path d="M102 160 Q360 330 618 160" fill="none" stroke="#A9760A" stroke-width="3"/>
    <line x1="150" y1="207.5363513952642" x2="150" y2="251.5363513952642" stroke="#C0392B" stroke-width="2"/><circle cx="150" cy="263.5363513952642" r="11" fill="#E8760B"/><circle cx="150" cy="263.5363513952642" r="6.82" fill="#C0392B" opacity="0.85"/><circle cx="150" cy="263.5363513952642" r="3.08" fill="#A9760A"/><line x1="250" y1="289.3593244819482" x2="250" y2="333.3593244819482" stroke="#C0392B" stroke-width="2"/><circle cx="250" cy="345.3593244819482" r="11" fill="#E8760B"/><circle cx="250" cy="345.3593244819482" r="6.82" fill="#C0392B" opacity="0.85"/><circle cx="250" cy="345.3593244819482" r="3.08" fill="#A9760A"/><line x1="360" y1="325" x2="360" y2="369" stroke="#C0392B" stroke-width="2"/><circle cx="360" cy="381" r="11" fill="#E8760B"/><circle cx="360" cy="381" r="6.82" fill="#C0392B" opacity="0.85"/><circle cx="360" cy="381" r="3.08" fill="#A9760A"/><line x1="470" y1="289.3593244819482" x2="470" y2="333.3593244819482" stroke="#C0392B" stroke-width="2"/><circle cx="470" cy="345.3593244819482" r="11" fill="#E8760B"/><circle cx="470" cy="345.3593244819482" r="6.82" fill="#C0392B" opacity="0.85"/><circle cx="470" cy="345.3593244819482" r="3.08" fill="#A9760A"/><line x1="570" y1="207.53635139526423" x2="570" y2="251.53635139526423" stroke="#C0392B" stroke-width="2"/><circle cx="570" cy="263.5363513952642" r="11" fill="#E8760B"/><circle cx="570" cy="263.5363513952642" r="6.82" fill="#C0392B" opacity="0.85"/><circle cx="570" cy="263.5363513952642" r="3.08" fill="#A9760A"/>
    <g opacity="0.5"><rect x="0" y="1120" width="720" height="160" fill="#FFFBEE"/>
    <path d="M46 1280 L90 1178 L134 1280 Z" fill="#C0392B" opacity="0.5"/><path d="M186 1280 L230 1178 L274 1280 Z" fill="#C0392B" opacity="0.5"/><path d="M326 1280 L370 1178 L414 1280 Z" fill="#C0392B" opacity="0.5"/><path d="M466 1280 L510 1178 L554 1280 Z" fill="#C0392B" opacity="0.5"/><path d="M606 1280 L650 1178 L694 1280 Z" fill="#C0392B" opacity="0.5"/></g>

      <rect x="26" y="26" width="668" height="1228" fill="none" stroke="#A9760A" stroke-width="3"/><rect x="34" y="34" width="652" height="1212" fill="none" stroke="#A9760A" stroke-width="1" opacity="0.6"/>
      <rect x="54" y="54" width="612" height="1172" fill="none" stroke="#E8760B" stroke-width="1.4" opacity="0.55"/>
      <circle cx="44" cy="44" r="26" fill="#E8760B"/><circle cx="44" cy="44" r="16.12" fill="#C0392B" opacity="0.85"/><circle cx="44" cy="44" r="7.280000000000001" fill="#A9760A"/><ellipse cx="0" cy="-34" rx="15" ry="34" fill="#A9760A" stroke="#C0392B" stroke-width="1.2" opacity="0.9" transform="translate(44 44) rotate(0)"/><ellipse cx="0" cy="-34" rx="15" ry="34" fill="#A9760A" stroke="#C0392B" stroke-width="1.2" opacity="0.9" transform="translate(44 44) rotate(45)"/><ellipse cx="0" cy="-34" rx="15" ry="34" fill="#A9760A" stroke="#C0392B" stroke-width="1.2" opacity="0.9" transform="translate(44 44) rotate(90)"/><ellipse cx="0" cy="-34" rx="15" ry="34" fill="#A9760A" stroke="#C0392B" stroke-width="1.2" opacity="0.9" transform="translate(44 44) rotate(135)"/><ellipse cx="0" cy="-34" rx="15" ry="34" fill="#A9760A" stroke="#C0392B" stroke-width="1.2" opacity="0.9" transform="translate(44 44) rotate(180)"/><ellipse cx="0" cy="-34" rx="15" ry="34" fill="#A9760A" stroke="#C0392B" stroke-width="1.2" opacity="0.9" transform="translate(44 44) rotate(225)"/><ellipse cx="0" cy="-34" rx="15" ry="34" fill="#A9760A" stroke="#C0392B" stroke-width="1.2" opacity="0.9" transform="translate(44 44) rotate(270)"/><ellipse cx="0" cy="-34" rx="15" ry="34" fill="#A9760A" stroke="#C0392B" stroke-width="1.2" opacity="0.9" transform="translate(44 44) rotate(315)"/><circle cx="676" cy="44" r="26" fill="#E8760B"/><circle cx="676" cy="44" r="16.12" fill="#C0392B" opacity="0.85"/><circle cx="676" cy="44" r="7.280000000000001" fill="#A9760A"/><ellipse cx="0" cy="-34" rx="15" ry="34" fill="#A9760A" stroke="#C0392B" stroke-width="1.2" opacity="0.9" transform="translate(676 44) rotate(0)"/><ellipse cx="0" cy="-34" rx="15" ry="34" fill="#A9760A" stroke="#C0392B" stroke-width="1.2" opacity="0.9" transform="translate(676 44) rotate(45)"/><ellipse cx="0" cy="-34" rx="15" ry="34" fill="#A9760A" stroke="#C0392B" stroke-width="1.2" opacity="0.9" transform="translate(676 44) rotate(90)"/><ellipse cx="0" cy="-34" rx="15" ry="34" fill="#A9760A" stroke="#C0392B" stroke-width="1.2" opacity="0.9" transform="translate(676 44) rotate(135)"/><ellipse cx="0" cy="-34" rx="15" ry="34" fill="#A9760A" stroke="#C0392B" stroke-width="1.2" opacity="0.9" transform="translate(676 44) rotate(180)"/><ellipse cx="0" cy="-34" rx="15" ry="34" fill="#A9760A" stroke="#C0392B" stroke-width="1.2" opacity="0.9" transform="translate(676 44) rotate(225)"/><ellipse cx="0" cy="-34" rx="15" ry="34" fill="#A9760A" stroke="#C0392B" stroke-width="1.2" opacity="0.9" transform="translate(676 44) rotate(270)"/><ellipse cx="0" cy="-34" rx="15" ry="34" fill="#A9760A" stroke="#C0392B" stroke-width="1.2" opacity="0.9" transform="translate(676 44) rotate(315)"/><circle cx="44" cy="1236" r="26" fill="#E8760B"/><circle cx="44" cy="1236" r="16.12" fill="#C0392B" opacity="0.85"/><circle cx="44" cy="1236" r="7.280000000000001" fill="#A9760A"/><ellipse cx="0" cy="-34" rx="15" ry="34" fill="#A9760A" stroke="#C0392B" stroke-width="1.2" opacity="0.9" transform="translate(44 1236) rotate(0)"/><ellipse cx="0" cy="-34" rx="15" ry="34" fill="#A9760A" stroke="#C0392B" stroke-width="1.2" opacity="0.9" transform="translate(44 1236) rotate(45)"/><ellipse cx="0" cy="-34" rx="15" ry="34" fill="#A9760A" stroke="#C0392B" stroke-width="1.2" opacity="0.9" transform="translate(44 1236) rotate(90)"/><ellipse cx="0" cy="-34" rx="15" ry="34" fill="#A9760A" stroke="#C0392B" stroke-width="1.2" opacity="0.9" transform="translate(44 1236) rotate(135)"/><ellipse cx="0" cy="-34" rx="15" ry="34" fill="#A9760A" stroke="#C0392B" stroke-width="1.2" opacity="0.9" transform="translate(44 1236) rotate(180)"/><ellipse cx="0" cy="-34" rx="15" ry="34" fill="#A9760A" stroke="#C0392B" stroke-width="1.2" opacity="0.9" transform="translate(44 1236) rotate(225)"/><ellipse cx="0" cy="-34" rx="15" ry="34" fill="#A9760A" stroke="#C0392B" stroke-width="1.2" opacity="0.9" transform="translate(44 1236) rotate(270)"/><ellipse cx="0" cy="-34" rx="15" ry="34" fill="#A9760A" stroke="#C0392B" stroke-width="1.2" opacity="0.9" transform="translate(44 1236) rotate(315)"/><circle cx="676" cy="1236" r="26" fill="#E8760B"/><circle cx="676" cy="1236" r="16.12" fill="#C0392B" opacity="0.85"/><circle cx="676" cy="1236" r="7.280000000000001" fill="#A9760A"/><ellipse cx="0" cy="-34" rx="15" ry="34" fill="#A9760A" stroke="#C0392B" stroke-width="1.2" opacity="0.9" transform="translate(676 1236) rotate(0)"/><ellipse cx="0" cy="-34" rx="15" ry="34" fill="#A9760A" stroke="#C0392B" stroke-width="1.2" opacity="0.9" transform="translate(676 1236) rotate(45)"/><ellipse cx="0" cy="-34" rx="15" ry="34" fill="#A9760A" stroke="#C0392B" stroke-width="1.2" opacity="0.9" transform="translate(676 1236) rotate(90)"/><ellipse cx="0" cy="-34" rx="15" ry="34" fill="#A9760A" stroke="#C0392B" stroke-width="1.2" opacity="0.9" transform="translate(676 1236) rotate(135)"/><ellipse cx="0" cy="-34" rx="15" ry="34" fill="#A9760A" stroke="#C0392B" stroke-width="1.2" opacity="0.9" transform="translate(676 1236) rotate(180)"/><ellipse cx="0" cy="-34" rx="15" ry="34" fill="#A9760A" stroke="#C0392B" stroke-width="1.2" opacity="0.9" transform="translate(676 1236) rotate(225)"/><ellipse cx="0" cy="-34" rx="15" ry="34" fill="#A9760A" stroke="#C0392B" stroke-width="1.2" opacity="0.9" transform="translate(676 1236) rotate(270)"/><ellipse cx="0" cy="-34" rx="15" ry="34" fill="#A9760A" stroke="#C0392B" stroke-width="1.2" opacity="0.9" transform="translate(676 1236) rotate(315)"/>
</svg>