<svg xmlns="http://www.w3.org/2000/svg" width="720" height="1280" viewBox="0 0 720 1280">
<defs>
  <linearGradient id="bgballoonpartycarnivalpopborder" x1="0" y1="0" x2="0" y2="1">
    <stop offset="0" stop-color="#FFFDF2"/><stop offset="1" stop-color="#FFE9F0"/>
  </linearGradient>
  
</defs>
<rect width="720" height="1280" fill="url(#bgballoonpartycarnivalpopborder)"/>
<rect x="22" y="22" width="676" height="1236" fill="none" stroke="#F2B705" stroke-width="2.5"/><rect x="30" y="30" width="660" height="1220" fill="none" stroke="#F2B705" stroke-width="1" opacity="0.6"/><g><ellipse cx="96" cy="150" rx="54" ry="64.8" fill="#E8447A"/>
      <ellipse cx="78.72" cy="128.4" rx="11.88" ry="16.2" fill="#fff" opacity="0.45"/>
      <path d="M90 213.72 L102 213.72 L96 222.36 Z" fill="#E8447A"/>
      <path d="M96 222.36 q 14 60 -2 118" stroke="#6B2D5C" stroke-width="1.6" fill="none" opacity="0.5"/></g><g><ellipse cx="210" cy="214" rx="40" ry="48" fill="#F2B705"/>
      <ellipse cx="197.2" cy="198" rx="8.8" ry="12" fill="#fff" opacity="0.45"/>
      <path d="M204 261.2 L216 261.2 L210 267.6 Z" fill="#F2B705"/>
      <path d="M210 267.6 q 14 60 -2 118" stroke="#6B2D5C" stroke-width="1.6" fill="none" opacity="0.5"/></g><g><ellipse cx="618" cy="154" rx="52" ry="62.4" fill="#3ABFC9"/>
      <ellipse cx="601.36" cy="133.2" rx="11.44" ry="15.6" fill="#fff" opacity="0.45"/>
      <path d="M612 215.36 L624 215.36 L618 223.68 Z" fill="#3ABFC9"/>
      <path d="M618 223.68 q 14 60 -2 118" stroke="#6B2D5C" stroke-width="1.6" fill="none" opacity="0.5"/></g><g><ellipse cx="506" cy="216" rx="38" ry="45.6" fill="#E8447A"/>
      <ellipse cx="493.84" cy="200.8" rx="8.36" ry="11.4" fill="#fff" opacity="0.45"/>
      <path d="M500 260.84 L512 260.84 L506 266.92 Z" fill="#E8447A"/>
      <path d="M506 266.92 q 14 60 -2 118" stroke="#6B2D5C" stroke-width="1.6" fill="none" opacity="0.5"/></g><rect x="390" y="942" width="10" height="6" rx="3" fill="#E8447A" opacity="0.75" transform="rotate(72 585 1000)"/><rect x="185" y="1019" width="10" height="6" rx="3" fill="#F2B705" opacity="0.75" transform="rotate(62 360 962)"/><rect x="404" y="1224" width="10" height="6" rx="3" fill="#3ABFC9" opacity="0.75" transform="rotate(64 175 1023)"/><rect x="145" y="1012" width="10" height="6" rx="3" fill="#3B1733" opacity="0.75" transform="rotate(62 430 1086)"/><rect x="164" y="1168" width="10" height="6" rx="3" fill="#E8447A" opacity="0.75" transform="rotate(12 652 1203)"/><rect x="10" y="1237" width="10" height="6" rx="3" fill="#F2B705" opacity="0.75" transform="rotate(80 252 1093)"/><rect x="338" y="1112" width="10" height="6" rx="3" fill="#3ABFC9" opacity="0.75" transform="rotate(1 431 965)"/><rect x="285" y="913" width="10" height="6" rx="3" fill="#3B1733" opacity="0.75" transform="rotate(28 437 1018)"/><rect x="218" y="1216" width="10" height="6" rx="3" fill="#E8447A" opacity="0.75" transform="rotate(66 188 1061)"/><rect x="56" y="1123" width="10" height="6" rx="3" fill="#F2B705" opacity="0.75" transform="rotate(9 546 992)"/><rect x="648" y="896" width="10" height="6" rx="3" fill="#3ABFC9" opacity="0.75" transform="rotate(25 314 916)"/><rect x="214" y="1116" width="10" height="6" rx="3" fill="#3B1733" opacity="0.75" transform="rotate(11 604 1014)"/><rect x="45" y="1159" width="10" height="6" rx="3" fill="#E8447A" opacity="0.75" transform="rotate(35 143 905)"/><rect x="261" y="1141" width="10" height="6" rx="3" fill="#F2B705" opacity="0.75" transform="rotate(75 244 1190)"/><rect x="525" y="1103" width="10" height="6" rx="3" fill="#3ABFC9" opacity="0.75" transform="rotate(76 328 1001)"/><rect x="539" y="1220" width="10" height="6" rx="3" fill="#3B1733" opacity="0.75" transform="rotate(39 709 964)"/><rect x="417" y="967" width="10" height="6" rx="3" fill="#E8447A" opacity="0.75" transform="rotate(33 50 1016)"/><rect x="91" y="1048" width="10" height="6" rx="3" fill="#F2B705" opacity="0.75" transform="rotate(51 42 867)"/><rect x="104" y="950" width="10" height="6" rx="3" fill="#3ABFC9" opacity="0.75" transform="rotate(45 601 1026)"/><rect x="101" y="1140" width="10" height="6" rx="3" fill="#3B1733" opacity="0.75" transform="rotate(52 488 920)"/><rect x="85" y="1056" width="10" height="6" rx="3" fill="#E8447A" opacity="0.75" transform="rotate(4 666 1093)"/><rect x="61" y="972" width="10" height="6" rx="3" fill="#F2B705" opacity="0.75" transform="rotate(32 560 929)"/><rect x="244" y="1109" width="10" height="6" rx="3" fill="#3ABFC9" opacity="0.75" transform="rotate(1 66 1046)"/><rect x="584" y="1056" width="10" height="6" rx="3" fill="#3B1733" opacity="0.75" transform="rotate(12 211 1098)"/><rect x="582" y="1032" width="10" height="6" rx="3" fill="#E8447A" opacity="0.75" transform="rotate(30 475 1086)"/><rect x="195" y="1142" width="10" height="6" rx="3" fill="#F2B705" opacity="0.75" transform="rotate(76 180 906)"/><rect x="330" y="1180" width="10" height="6" rx="3" fill="#3ABFC9" opacity="0.75" transform="rotate(71 268 998)"/><rect x="108" y="1209" width="10" height="6" rx="3" fill="#3B1733" opacity="0.75" transform="rotate(27 606 1207)"/><rect x="101" y="957" width="10" height="6" rx="3" fill="#E8447A" opacity="0.75" transform="rotate(30 625 1219)"/><rect x="491" y="936" width="10" height="6" rx="3" fill="#F2B705" opacity="0.75" transform="rotate(14 323 1183)"/><rect x="392" y="1188" width="10" height="6" rx="3" fill="#3ABFC9" opacity="0.75" transform="rotate(0 160 1051)"/><rect x="157" y="888" width="10" height="6" rx="3" fill="#3B1733" opacity="0.75" transform="rotate(90 130 1045)"/><rect x="76" y="921" width="10" height="6" rx="3" fill="#E8447A" opacity="0.75" transform="rotate(14 649 932)"/><rect x="15" y="922" width="10" height="6" rx="3" fill="#F2B705" opacity="0.75" transform="rotate(32 513 1173)"/><rect x="384" y="956" width="10" height="6" rx="3" fill="#3ABFC9" opacity="0.75" transform="rotate(10 555 905)"/><rect x="396" y="1061" width="10" height="6" rx="3" fill="#3B1733" opacity="0.75" transform="rotate(71 691 1052)"/><rect x="144" y="983" width="10" height="6" rx="3" fill="#E8447A" opacity="0.75" transform="rotate(35 362 1212)"/><rect x="296" y="1106" width="10" height="6" rx="3" fill="#F2B705" opacity="0.75" transform="rotate(27 420 999)"/><rect x="650" y="1108" width="10" height="6" rx="3" fill="#3ABFC9" opacity="0.75" transform="rotate(10 55 902)"/><rect x="581" y="1147" width="10" height="6" rx="3" fill="#3B1733" opacity="0.75" transform="rotate(50 308 1007)"/><rect x="18" y="972" width="10" height="6" rx="3" fill="#E8447A" opacity="0.75" transform="rotate(10 677 866)"/><rect x="9" y="897" width="10" height="6" rx="3" fill="#F2B705" opacity="0.75" transform="rotate(41 79 953)"/><rect x="394" y="919" width="10" height="6" rx="3" fill="#3ABFC9" opacity="0.75" transform="rotate(10 605 1013)"/><rect x="310" y="1215" width="10" height="6" rx="3" fill="#3B1733" opacity="0.75" transform="rotate(67 481 1179)"/><rect x="183" y="865" width="10" height="6" rx="3" fill="#E8447A" opacity="0.75" transform="rotate(34 419 1067)"/><rect x="626" y="1000" width="10" height="6" rx="3" fill="#F2B705" opacity="0.75" transform="rotate(50 440 1191)"/>
      <path d="M0 1180 Q360 1120 720 1180 L720 1280 L0 1280 Z" fill="#3B1733" opacity="0.2"/>

      <rect x="26" y="26" width="668" height="1228" fill="none" stroke="#F2B705" stroke-width="3"/><rect x="34" y="34" width="652" height="1212" fill="none" stroke="#F2B705" stroke-width="1" opacity="0.6"/>
      <rect x="54" y="54" width="612" height="1172" fill="none" stroke="#E8447A" stroke-width="1.4" opacity="0.55"/>
      <circle cx="44" cy="44" r="26" fill="#E8447A"/><circle cx="44" cy="44" r="16.12" fill="#3ABFC9" opacity="0.85"/><circle cx="44" cy="44" r="7.280000000000001" fill="#F2B705"/><ellipse cx="0" cy="-34" rx="15" ry="34" fill="#F2B705" stroke="#3ABFC9" stroke-width="1.2" opacity="0.9" transform="translate(44 44) rotate(0)"/><ellipse cx="0" cy="-34" rx="15" ry="34" fill="#F2B705" stroke="#3ABFC9" stroke-width="1.2" opacity="0.9" transform="translate(44 44) rotate(45)"/><ellipse cx="0" cy="-34" rx="15" ry="34" fill="#F2B705" stroke="#3ABFC9" stroke-width="1.2" opacity="0.9" transform="translate(44 44) rotate(90)"/><ellipse cx="0" cy="-34" rx="15" ry="34" fill="#F2B705" stroke="#3ABFC9" stroke-width="1.2" opacity="0.9" transform="translate(44 44) rotate(135)"/><ellipse cx="0" cy="-34" rx="15" ry="34" fill="#F2B705" stroke="#3ABFC9" stroke-width="1.2" opacity="0.9" transform="translate(44 44) rotate(180)"/><ellipse cx="0" cy="-34" rx="15" ry="34" fill="#F2B705" stroke="#3ABFC9" stroke-width="1.2" opacity="0.9" transform="translate(44 44) rotate(225)"/><ellipse cx="0" cy="-34" rx="15" ry="34" fill="#F2B705" stroke="#3ABFC9" stroke-width="1.2" opacity="0.9" transform="translate(44 44) rotate(270)"/><ellipse cx="0" cy="-34" rx="15" ry="34" fill="#F2B705" stroke="#3ABFC9" stroke-width="1.2" opacity="0.9" transform="translate(44 44) rotate(315)"/><circle cx="676" cy="44" r="26" fill="#E8447A"/><circle cx="676" cy="44" r="16.12" fill="#3ABFC9" opacity="0.85"/><circle cx="676" cy="44" r="7.280000000000001" fill="#F2B705"/><ellipse cx="0" cy="-34" rx="15" ry="34" fill="#F2B705" stroke="#3ABFC9" stroke-width="1.2" opacity="0.9" transform="translate(676 44) rotate(0)"/><ellipse cx="0" cy="-34" rx="15" ry="34" fill="#F2B705" stroke="#3ABFC9" stroke-width="1.2" opacity="0.9" transform="translate(676 44) rotate(45)"/><ellipse cx="0" cy="-34" rx="15" ry="34" fill="#F2B705" stroke="#3ABFC9" stroke-width="1.2" opacity="0.9" transform="translate(676 44) rotate(90)"/><ellipse cx="0" cy="-34" rx="15" ry="34" fill="#F2B705" stroke="#3ABFC9" stroke-width="1.2" opacity="0.9" transform="translate(676 44) rotate(135)"/><ellipse cx="0" cy="-34" rx="15" ry="34" fill="#F2B705" stroke="#3ABFC9" stroke-width="1.2" opacity="0.9" transform="translate(676 44) rotate(180)"/><ellipse cx="0" cy="-34" rx="15" ry="34" fill="#F2B705" stroke="#3ABFC9" stroke-width="1.2" opacity="0.9" transform="translate(676 44) rotate(225)"/><ellipse cx="0" cy="-34" rx="15" ry="34" fill="#F2B705" stroke="#3ABFC9" stroke-width="1.2" opacity="0.9" transform="translate(676 44) rotate(270)"/><ellipse cx="0" cy="-34" rx="15" ry="34" fill="#F2B705" stroke="#3ABFC9" stroke-width="1.2" opacity="0.9" transform="translate(676 44) rotate(315)"/><circle cx="44" cy="1236" r="26" fill="#E8447A"/><circle cx="44" cy="1236" r="16.12" fill="#3ABFC9" opacity="0.85"/><circle cx="44" cy="1236" r="7.280000000000001" fill="#F2B705"/><ellipse cx="0" cy="-34" rx="15" ry="34" fill="#F2B705" stroke="#3ABFC9" stroke-width="1.2" opacity="0.9" transform="translate(44 1236) rotate(0)"/><ellipse cx="0" cy="-34" rx="15" ry="34" fill="#F2B705" stroke="#3ABFC9" stroke-width="1.2" opacity="0.9" transform="translate(44 1236) rotate(45)"/><ellipse cx="0" cy="-34" rx="15" ry="34" fill="#F2B705" stroke="#3ABFC9" stroke-width="1.2" opacity="0.9" transform="translate(44 1236) rotate(90)"/><ellipse cx="0" cy="-34" rx="15" ry="34" fill="#F2B705" stroke="#3ABFC9" stroke-width="1.2" opacity="0.9" transform="translate(44 1236) rotate(135)"/><ellipse cx="0" cy="-34" rx="15" ry="34" fill="#F2B705" stroke="#3ABFC9" stroke-width="1.2" opacity="0.9" transform="translate(44 1236) rotate(180)"/><ellipse cx="0" cy="-34" rx="15" ry="34" fill="#F2B705" stroke="#3ABFC9" stroke-width="1.2" opacity="0.9" transform="translate(44 1236) rotate(225)"/><ellipse cx="0" cy="-34" rx="15" ry="34" fill="#F2B705" stroke="#3ABFC9" stroke-width="1.2" opacity="0.9" transform="translate(44 1236) rotate(270)"/><ellipse cx="0" cy="-34" rx="15" ry="34" fill="#F2B705" stroke="#3ABFC9" stroke-width="1.2" opacity="0.9" transform="translate(44 1236) rotate(315)"/><circle cx="676" cy="1236" r="26" fill="#E8447A"/><circle cx="676" cy="1236" r="16.12" fill="#3ABFC9" opacity="0.85"/><circle cx="676" cy="1236" r="7.280000000000001" fill="#F2B705"/><ellipse cx="0" cy="-34" rx="15" ry="34" fill="#F2B705" stroke="#3ABFC9" stroke-width="1.2" opacity="0.9" transform="translate(676 1236) rotate(0)"/><ellipse cx="0" cy="-34" rx="15" ry="34" fill="#F2B705" stroke="#3ABFC9" stroke-width="1.2" opacity="0.9" transform="translate(676 1236) rotate(45)"/><ellipse cx="0" cy="-34" rx="15" ry="34" fill="#F2B705" stroke="#3ABFC9" stroke-width="1.2" opacity="0.9" transform="translate(676 1236) rotate(90)"/><ellipse cx="0" cy="-34" rx="15" ry="34" fill="#F2B705" stroke="#3ABFC9" stroke-width="1.2" opacity="0.9" transform="translate(676 1236) rotate(135)"/><ellipse cx="0" cy="-34" rx="15" ry="34" fill="#F2B705" stroke="#3ABFC9" stroke-width="1.2" opacity="0.9" transform="translate(676 1236) rotate(180)"/><ellipse cx="0" cy="-34" rx="15" ry="34" fill="#F2B705" stroke="#3ABFC9" stroke-width="1.2" opacity="0.9" transform="translate(676 1236) rotate(225)"/><ellipse cx="0" cy="-34" rx="15" ry="34" fill="#F2B705" stroke="#3ABFC9" stroke-width="1.2" opacity="0.9" transform="translate(676 1236) rotate(270)"/><ellipse cx="0" cy="-34" rx="15" ry="34" fill="#F2B705" stroke="#3ABFC9" stroke-width="1.2" opacity="0.9" transform="translate(676 1236) rotate(315)"/>
</svg>