<svg xmlns="http://www.w3.org/2000/svg" width="720" height="1280" viewBox="0 0 720 1280">
<defs>
  <linearGradient id="bgcorporategridplumnoirarch" x1="0" y1="0" x2="1" y2="1">
    <stop offset="0" stop-color="#2C1132"/><stop offset="1" stop-color="#110614"/>
  </linearGradient>
  
</defs>
<rect width="720" height="1280" fill="url(#bgcorporategridplumnoirarch)"/>

    <path d="M0 0 L720 0 L720 150 Q360 230 0 150 Z" fill="#A67BC4" opacity="0.9"/>
    <path d="M0 1280 L0 1120 Q360 1030 720 1120 L720 1280 Z" fill="#6F5B94" opacity="0.85"/>
    <g opacity="0.22" stroke="#D4AF37" stroke-width="1.2" fill="none">
      <circle cx="640" cy="240" r="40"/><circle cx="640" cy="240" r="74"/><circle cx="640" cy="240" r="108"/><circle cx="640" cy="240" r="142"/><circle cx="640" cy="240" r="176"/><circle cx="640" cy="240" r="210"/><circle cx="640" cy="240" r="244"/><circle cx="640" cy="240" r="278"/><circle cx="640" cy="240" r="312"/><circle cx="640" cy="240" r="346"/>
      <circle cx="80" cy="1040" r="40"/><circle cx="80" cy="1040" r="74"/><circle cx="80" cy="1040" r="108"/><circle cx="80" cy="1040" r="142"/><circle cx="80" cy="1040" r="176"/><circle cx="80" cy="1040" r="210"/><circle cx="80" cy="1040" r="244"/><circle cx="80" cy="1040" r="278"/><circle cx="80" cy="1040" r="312"/><circle cx="80" cy="1040" r="346"/>
    </g>
    <rect x="60" y="300" width="6" height="640" fill="#D4AF37" opacity="0.6"/>
    <rect x="654" y="300" width="6" height="640" fill="#D4AF37" opacity="0.6"/>

      <path d="M140 0 Q140 196 360 196 Q580 196 580 0" fill="none" stroke="#D4AF37" stroke-width="6" opacity="0.85"/>
      <path d="M96 0 Q96 252 360 252 Q624 252 624 0" fill="none" stroke="#A67BC4" stroke-width="2.5" opacity="0.5"/>
      <circle cx="180" cy="149.6" r="7" fill="#A67BC4"/><circle cx="260" cy="172" r="7" fill="#A67BC4"/><circle cx="360" cy="200" r="7" fill="#A67BC4"/><circle cx="460" cy="172" r="7" fill="#A67BC4"/><circle cx="540" cy="149.6" r="7" fill="#A67BC4"/>
      <rect x="0" y="1196" width="720" height="9" fill="#D4AF37" opacity="0.6"/>
      <rect x="0" y="1218" width="720" height="62" fill="#0B040D" opacity="0.18"/>
      <circle cx="90" cy="1249" r="5" fill="#D4AF37"/><circle cx="136" cy="1249" r="5" fill="#D4AF37"/><circle cx="182" cy="1249" r="5" fill="#D4AF37"/><circle cx="228" cy="1249" r="5" fill="#D4AF37"/><circle cx="274" cy="1249" r="5" fill="#D4AF37"/><circle cx="320" cy="1249" r="5" fill="#D4AF37"/><circle cx="366" cy="1249" r="5" fill="#D4AF37"/><circle cx="412" cy="1249" r="5" fill="#D4AF37"/><circle cx="458" cy="1249" r="5" fill="#D4AF37"/><circle cx="504" cy="1249" r="5" fill="#D4AF37"/><circle cx="550" cy="1249" r="5" fill="#D4AF37"/><circle cx="596" cy="1249" r="5" fill="#D4AF37"/>
</svg>