<svg xmlns="http://www.w3.org/2000/svg" width="720" height="1280" viewBox="0 0 720 1280">
<defs>
  <linearGradient id="bgmoorisharchmidnightgoldglow" x1="0" y1="1" x2="1" y2="0">
    <stop offset="0" stop-color="#171D33"/><stop offset="1" stop-color="#06080F"/>
  </linearGradient>
  <radialGradient id="glowmoorisharchmidnightgoldglow" cx="0.5" cy="0.5" r="0.5">
    <stop offset="0" stop-color="#FFF7E4" stop-opacity="0.92"/><stop offset="0.62" stop-color="#FFF7E4" stop-opacity="0.5"/><stop offset="1" stop-color="#FFF7E4" stop-opacity="0"/>
  </radialGradient>
</defs>
<rect width="720" height="1280" fill="url(#bgmoorisharchmidnightgoldglow)"/>

    <path d="M60 1280 L60 420 Q60 180 360 160 Q660 180 660 420 L660 1280 Z" fill="none" stroke="#D9B45B" stroke-width="4"/>
    <path d="M84 1280 L84 430 Q84 208 360 188 Q636 208 636 430 L636 1280 Z" fill="none" stroke="#D9B45B" stroke-width="1.4" opacity="0.7"/>
    <g opacity="0.28" stroke="#F0D68A" stroke-width="1.4" fill="none">
      <circle cx="140" cy="900" r="24"/><circle cx="204" cy="900" r="24"/><circle cx="268" cy="900" r="24"/><circle cx="332" cy="900" r="24"/><circle cx="396" cy="900" r="24"/><circle cx="460" cy="900" r="24"/><circle cx="524" cy="900" r="24"/><circle cx="588" cy="900" r="24"/><circle cx="140" cy="962" r="24"/><circle cx="204" cy="962" r="24"/><circle cx="268" cy="962" r="24"/><circle cx="332" cy="962" r="24"/><circle cx="396" cy="962" r="24"/><circle cx="460" cy="962" r="24"/><circle cx="524" cy="962" r="24"/><circle cx="588" cy="962" r="24"/><circle cx="140" cy="1024" r="24"/><circle cx="204" cy="1024" r="24"/><circle cx="268" cy="1024" r="24"/><circle cx="332" cy="1024" r="24"/><circle cx="396" cy="1024" r="24"/><circle cx="460" cy="1024" r="24"/><circle cx="524" cy="1024" r="24"/><circle cx="588" cy="1024" r="24"/><circle cx="140" cy="1086" r="24"/><circle cx="204" cy="1086" r="24"/><circle cx="268" cy="1086" r="24"/><circle cx="332" cy="1086" r="24"/><circle cx="396" cy="1086" r="24"/><circle cx="460" cy="1086" r="24"/><circle cx="524" cy="1086" r="24"/><circle cx="588" cy="1086" r="24"/><circle cx="140" cy="1148" r="24"/><circle cx="204" cy="1148" r="24"/><circle cx="268" cy="1148" r="24"/><circle cx="332" cy="1148" r="24"/><circle cx="396" cy="1148" r="24"/><circle cx="460" cy="1148" r="24"/><circle cx="524" cy="1148" r="24"/><circle cx="588" cy="1148" r="24"/><circle cx="140" cy="1210" r="24"/><circle cx="204" cy="1210" r="24"/><circle cx="268" cy="1210" r="24"/><circle cx="332" cy="1210" r="24"/><circle cx="396" cy="1210" r="24"/><circle cx="460" cy="1210" r="24"/><circle cx="524" cy="1210" r="24"/><circle cx="588" cy="1210" r="24"/>
    </g>
    <g opacity="0.9"><path d="M80 250 Q120 180 160 250" fill="none" stroke="#8A6C2A" stroke-width="3"/><path d="M320 250 Q360 180 400 250" fill="none" stroke="#8A6C2A" stroke-width="3"/><path d="M560 250 Q600 180 640 250" fill="none" stroke="#8A6C2A" stroke-width="3"/></g>
    <line x1="150" y1="270" x2="150" y2="330" stroke="#D9B45B" stroke-width="2"/><circle cx="150" cy="342" r="11" fill="#F0D68A"/><circle cx="150" cy="342" r="6.82" fill="#8A6C2A" opacity="0.85"/><circle cx="150" cy="342" r="3.08" fill="#D9B45B"/><line x1="240" y1="270" x2="240" y2="330" stroke="#D9B45B" stroke-width="2"/><circle cx="240" cy="342" r="11" fill="#F0D68A"/><circle cx="240" cy="342" r="6.82" fill="#8A6C2A" opacity="0.85"/><circle cx="240" cy="342" r="3.08" fill="#D9B45B"/><line x1="360" y1="270" x2="360" y2="330" stroke="#D9B45B" stroke-width="2"/><circle cx="360" cy="342" r="11" fill="#F0D68A"/><circle cx="360" cy="342" r="6.82" fill="#8A6C2A" opacity="0.85"/><circle cx="360" cy="342" r="3.08" fill="#D9B45B"/><line x1="480" y1="270" x2="480" y2="330" stroke="#D9B45B" stroke-width="2"/><circle cx="480" cy="342" r="11" fill="#F0D68A"/><circle cx="480" cy="342" r="6.82" fill="#8A6C2A" opacity="0.85"/><circle cx="480" cy="342" r="3.08" fill="#D9B45B"/><line x1="570" y1="270" x2="570" y2="330" stroke="#D9B45B" stroke-width="2"/><circle cx="570" cy="342" r="11" fill="#F0D68A"/><circle cx="570" cy="342" r="6.82" fill="#8A6C2A" opacity="0.85"/><circle cx="570" cy="342" r="3.08" fill="#D9B45B"/>
    <rect x="0" y="0" width="720" height="30" fill="#03040A" opacity="0.35"/>

      <ellipse cx="360" cy="450" rx="356" ry="330" fill="url(#glowmoorisharchmidnightgoldglow)"/>
      <ellipse cx="360" cy="450" rx="300" ry="272" fill="none" stroke="#D9B45B" stroke-width="1.2" opacity="0.35"/>
      <path d="M0 1130 L720 1058 L720 1280 L0 1280 Z" fill="#D9B45B" opacity="0.14"/>
      <circle cx="90" cy="1218" r="4" fill="#D9B45B"/><circle cx="132" cy="1218" r="4" fill="#D9B45B"/><circle cx="174" cy="1218" r="4" fill="#D9B45B"/><circle cx="216" cy="1218" r="4" fill="#D9B45B"/><circle cx="258" cy="1218" r="4" fill="#D9B45B"/><circle cx="300" cy="1218" r="4" fill="#D9B45B"/><circle cx="342" cy="1218" r="4" fill="#D9B45B"/><circle cx="384" cy="1218" r="4" fill="#D9B45B"/><circle cx="426" cy="1218" r="4" fill="#D9B45B"/><circle cx="468" cy="1218" r="4" fill="#D9B45B"/><circle cx="510" cy="1218" r="4" fill="#D9B45B"/><circle cx="552" cy="1218" r="4" fill="#D9B45B"/><circle cx="594" cy="1218" r="4" fill="#D9B45B"/>
</svg>