<svg xmlns="http://www.w3.org/2000/svg" width="720" height="1280" viewBox="0 0 720 1280">
<defs>
  <linearGradient id="bgpeacockfanskytrustborder" x1="0" y1="0" x2="0" y2="1">
    <stop offset="0" stop-color="#EBF6FF"/><stop offset="1" stop-color="#C3E2F9"/>
  </linearGradient>
  
</defs>
<rect width="720" height="1280" fill="url(#bgpeacockfanskytrustborder)"/>
<rect x="22" y="22" width="676" height="1236" fill="none" stroke="#D6A94A" stroke-width="2.5"/><rect x="30" y="30" width="660" height="1220" fill="none" stroke="#D6A94A" stroke-width="1" opacity="0.6"/>
    <g><g transform="translate(192 1250) rotate(-32)"><path d="M0 0 q -6 -70 0 -120 q 6 50 0 120 Z" fill="#6FB6DF" opacity="0.75"/><ellipse cx="0" cy="-132" rx="20" ry="27" fill="#3F92C4"/><ellipse cx="0" cy="-134" rx="12" ry="17" fill="#D6A94A"/><ellipse cx="0" cy="-136" rx="6" ry="9" fill="#12344A"/></g><g transform="translate(234 1250) rotate(-24)"><path d="M0 0 q -6 -70 0 -120 q 6 50 0 120 Z" fill="#6FB6DF" opacity="0.75"/><ellipse cx="0" cy="-132" rx="20" ry="27" fill="#3F92C4"/><ellipse cx="0" cy="-134" rx="12" ry="17" fill="#D6A94A"/><ellipse cx="0" cy="-136" rx="6" ry="9" fill="#12344A"/></g><g transform="translate(276 1250) rotate(-16)"><path d="M0 0 q -6 -70 0 -120 q 6 50 0 120 Z" fill="#6FB6DF" opacity="0.75"/><ellipse cx="0" cy="-132" rx="20" ry="27" fill="#3F92C4"/><ellipse cx="0" cy="-134" rx="12" ry="17" fill="#D6A94A"/><ellipse cx="0" cy="-136" rx="6" ry="9" fill="#12344A"/></g><g transform="translate(318 1250) rotate(-8)"><path d="M0 0 q -6 -70 0 -120 q 6 50 0 120 Z" fill="#6FB6DF" opacity="0.75"/><ellipse cx="0" cy="-132" rx="20" ry="27" fill="#3F92C4"/><ellipse cx="0" cy="-134" rx="12" ry="17" fill="#D6A94A"/><ellipse cx="0" cy="-136" rx="6" ry="9" fill="#12344A"/></g><g transform="translate(360 1250) rotate(0)"><path d="M0 0 q -6 -70 0 -120 q 6 50 0 120 Z" fill="#6FB6DF" opacity="0.75"/><ellipse cx="0" cy="-132" rx="20" ry="27" fill="#3F92C4"/><ellipse cx="0" cy="-134" rx="12" ry="17" fill="#D6A94A"/><ellipse cx="0" cy="-136" rx="6" ry="9" fill="#12344A"/></g><g transform="translate(402 1250) rotate(8)"><path d="M0 0 q -6 -70 0 -120 q 6 50 0 120 Z" fill="#6FB6DF" opacity="0.75"/><ellipse cx="0" cy="-132" rx="20" ry="27" fill="#3F92C4"/><ellipse cx="0" cy="-134" rx="12" ry="17" fill="#D6A94A"/><ellipse cx="0" cy="-136" rx="6" ry="9" fill="#12344A"/></g><g transform="translate(444 1250) rotate(16)"><path d="M0 0 q -6 -70 0 -120 q 6 50 0 120 Z" fill="#6FB6DF" opacity="0.75"/><ellipse cx="0" cy="-132" rx="20" ry="27" fill="#3F92C4"/><ellipse cx="0" cy="-134" rx="12" ry="17" fill="#D6A94A"/><ellipse cx="0" cy="-136" rx="6" ry="9" fill="#12344A"/></g><g transform="translate(486 1250) rotate(24)"><path d="M0 0 q -6 -70 0 -120 q 6 50 0 120 Z" fill="#6FB6DF" opacity="0.75"/><ellipse cx="0" cy="-132" rx="20" ry="27" fill="#3F92C4"/><ellipse cx="0" cy="-134" rx="12" ry="17" fill="#D6A94A"/><ellipse cx="0" cy="-136" rx="6" ry="9" fill="#12344A"/></g><g transform="translate(528 1250) rotate(32)"><path d="M0 0 q -6 -70 0 -120 q 6 50 0 120 Z" fill="#6FB6DF" opacity="0.75"/><ellipse cx="0" cy="-132" rx="20" ry="27" fill="#3F92C4"/><ellipse cx="0" cy="-134" rx="12" ry="17" fill="#D6A94A"/><ellipse cx="0" cy="-136" rx="6" ry="9" fill="#12344A"/></g></g>
    <ellipse cx="360" cy="1258" rx="210" ry="34" fill="#12344A" opacity="0.25"/>
    <g opacity="0.85"><ellipse cx="0" cy="-88" rx="14" ry="88" fill="#3F92C4" stroke="#D6A94A" stroke-width="1.2" opacity="0.9" transform="translate(360 132) rotate(0)"/><ellipse cx="0" cy="-88" rx="14" ry="88" fill="#3F92C4" stroke="#D6A94A" stroke-width="1.2" opacity="0.9" transform="translate(360 132) rotate(30)"/><ellipse cx="0" cy="-88" rx="14" ry="88" fill="#3F92C4" stroke="#D6A94A" stroke-width="1.2" opacity="0.9" transform="translate(360 132) rotate(60)"/><ellipse cx="0" cy="-88" rx="14" ry="88" fill="#3F92C4" stroke="#D6A94A" stroke-width="1.2" opacity="0.9" transform="translate(360 132) rotate(90)"/><ellipse cx="0" cy="-88" rx="14" ry="88" fill="#3F92C4" stroke="#D6A94A" stroke-width="1.2" opacity="0.9" transform="translate(360 132) rotate(120)"/><ellipse cx="0" cy="-88" rx="14" ry="88" fill="#3F92C4" stroke="#D6A94A" stroke-width="1.2" opacity="0.9" transform="translate(360 132) rotate(150)"/><ellipse cx="0" cy="-88" rx="14" ry="88" fill="#3F92C4" stroke="#D6A94A" stroke-width="1.2" opacity="0.9" transform="translate(360 132) rotate(180)"/><ellipse cx="0" cy="-88" rx="14" ry="88" fill="#3F92C4" stroke="#D6A94A" stroke-width="1.2" opacity="0.9" transform="translate(360 132) rotate(210)"/><ellipse cx="0" cy="-88" rx="14" ry="88" fill="#3F92C4" stroke="#D6A94A" stroke-width="1.2" opacity="0.9" transform="translate(360 132) rotate(240)"/><ellipse cx="0" cy="-88" rx="14" ry="88" fill="#3F92C4" stroke="#D6A94A" stroke-width="1.2" opacity="0.9" transform="translate(360 132) rotate(270)"/><ellipse cx="0" cy="-88" rx="14" ry="88" fill="#3F92C4" stroke="#D6A94A" stroke-width="1.2" opacity="0.9" transform="translate(360 132) rotate(300)"/><ellipse cx="0" cy="-88" rx="14" ry="88" fill="#3F92C4" stroke="#D6A94A" stroke-width="1.2" opacity="0.9" transform="translate(360 132) rotate(330)"/><circle cx="360" cy="132" r="26" fill="#F7FCFF"/></g>
    <circle cx="70" cy="48" r="4" fill="#D6A94A"/><circle cx="98" cy="48" r="4" fill="#D6A94A"/><circle cx="126" cy="48" r="4" fill="#D6A94A"/><circle cx="154" cy="48" r="4" fill="#D6A94A"/><circle cx="182" cy="48" r="4" fill="#D6A94A"/><circle cx="210" cy="48" r="4" fill="#D6A94A"/><circle cx="238" cy="48" r="4" fill="#D6A94A"/><circle cx="266" cy="48" r="4" fill="#D6A94A"/><circle cx="294" cy="48" r="4" fill="#D6A94A"/><circle cx="322" cy="48" r="4" fill="#D6A94A"/><circle cx="350" cy="48" r="4" fill="#D6A94A"/><circle cx="378" cy="48" r="4" fill="#D6A94A"/><circle cx="406" cy="48" r="4" fill="#D6A94A"/><circle cx="434" cy="48" r="4" fill="#D6A94A"/><circle cx="462" cy="48" r="4" fill="#D6A94A"/><circle cx="490" cy="48" r="4" fill="#D6A94A"/><circle cx="518" cy="48" r="4" fill="#D6A94A"/><circle cx="546" cy="48" r="4" fill="#D6A94A"/><circle cx="574" cy="48" r="4" fill="#D6A94A"/><circle cx="602" cy="48" r="4" fill="#D6A94A"/><circle cx="630" cy="48" r="4" fill="#D6A94A"/>

      <rect x="26" y="26" width="668" height="1228" fill="none" stroke="#D6A94A" stroke-width="3"/><rect x="34" y="34" width="652" height="1212" fill="none" stroke="#D6A94A" stroke-width="1" opacity="0.6"/>
      <rect x="54" y="54" width="612" height="1172" fill="none" stroke="#3F92C4" stroke-width="1.4" opacity="0.55"/>
      <circle cx="44" cy="44" r="26" fill="#3F92C4"/><circle cx="44" cy="44" r="16.12" fill="#6FB6DF" opacity="0.85"/><circle cx="44" cy="44" r="7.280000000000001" fill="#D6A94A"/><ellipse cx="0" cy="-34" rx="15" ry="34" fill="#D6A94A" stroke="#6FB6DF" stroke-width="1.2" opacity="0.9" transform="translate(44 44) rotate(0)"/><ellipse cx="0" cy="-34" rx="15" ry="34" fill="#D6A94A" stroke="#6FB6DF" stroke-width="1.2" opacity="0.9" transform="translate(44 44) rotate(45)"/><ellipse cx="0" cy="-34" rx="15" ry="34" fill="#D6A94A" stroke="#6FB6DF" stroke-width="1.2" opacity="0.9" transform="translate(44 44) rotate(90)"/><ellipse cx="0" cy="-34" rx="15" ry="34" fill="#D6A94A" stroke="#6FB6DF" stroke-width="1.2" opacity="0.9" transform="translate(44 44) rotate(135)"/><ellipse cx="0" cy="-34" rx="15" ry="34" fill="#D6A94A" stroke="#6FB6DF" stroke-width="1.2" opacity="0.9" transform="translate(44 44) rotate(180)"/><ellipse cx="0" cy="-34" rx="15" ry="34" fill="#D6A94A" stroke="#6FB6DF" stroke-width="1.2" opacity="0.9" transform="translate(44 44) rotate(225)"/><ellipse cx="0" cy="-34" rx="15" ry="34" fill="#D6A94A" stroke="#6FB6DF" stroke-width="1.2" opacity="0.9" transform="translate(44 44) rotate(270)"/><ellipse cx="0" cy="-34" rx="15" ry="34" fill="#D6A94A" stroke="#6FB6DF" stroke-width="1.2" opacity="0.9" transform="translate(44 44) rotate(315)"/><circle cx="676" cy="44" r="26" fill="#3F92C4"/><circle cx="676" cy="44" r="16.12" fill="#6FB6DF" opacity="0.85"/><circle cx="676" cy="44" r="7.280000000000001" fill="#D6A94A"/><ellipse cx="0" cy="-34" rx="15" ry="34" fill="#D6A94A" stroke="#6FB6DF" stroke-width="1.2" opacity="0.9" transform="translate(676 44) rotate(0)"/><ellipse cx="0" cy="-34" rx="15" ry="34" fill="#D6A94A" stroke="#6FB6DF" stroke-width="1.2" opacity="0.9" transform="translate(676 44) rotate(45)"/><ellipse cx="0" cy="-34" rx="15" ry="34" fill="#D6A94A" stroke="#6FB6DF" stroke-width="1.2" opacity="0.9" transform="translate(676 44) rotate(90)"/><ellipse cx="0" cy="-34" rx="15" ry="34" fill="#D6A94A" stroke="#6FB6DF" stroke-width="1.2" opacity="0.9" transform="translate(676 44) rotate(135)"/><ellipse cx="0" cy="-34" rx="15" ry="34" fill="#D6A94A" stroke="#6FB6DF" stroke-width="1.2" opacity="0.9" transform="translate(676 44) rotate(180)"/><ellipse cx="0" cy="-34" rx="15" ry="34" fill="#D6A94A" stroke="#6FB6DF" stroke-width="1.2" opacity="0.9" transform="translate(676 44) rotate(225)"/><ellipse cx="0" cy="-34" rx="15" ry="34" fill="#D6A94A" stroke="#6FB6DF" stroke-width="1.2" opacity="0.9" transform="translate(676 44) rotate(270)"/><ellipse cx="0" cy="-34" rx="15" ry="34" fill="#D6A94A" stroke="#6FB6DF" stroke-width="1.2" opacity="0.9" transform="translate(676 44) rotate(315)"/><circle cx="44" cy="1236" r="26" fill="#3F92C4"/><circle cx="44" cy="1236" r="16.12" fill="#6FB6DF" opacity="0.85"/><circle cx="44" cy="1236" r="7.280000000000001" fill="#D6A94A"/><ellipse cx="0" cy="-34" rx="15" ry="34" fill="#D6A94A" stroke="#6FB6DF" stroke-width="1.2" opacity="0.9" transform="translate(44 1236) rotate(0)"/><ellipse cx="0" cy="-34" rx="15" ry="34" fill="#D6A94A" stroke="#6FB6DF" stroke-width="1.2" opacity="0.9" transform="translate(44 1236) rotate(45)"/><ellipse cx="0" cy="-34" rx="15" ry="34" fill="#D6A94A" stroke="#6FB6DF" stroke-width="1.2" opacity="0.9" transform="translate(44 1236) rotate(90)"/><ellipse cx="0" cy="-34" rx="15" ry="34" fill="#D6A94A" stroke="#6FB6DF" stroke-width="1.2" opacity="0.9" transform="translate(44 1236) rotate(135)"/><ellipse cx="0" cy="-34" rx="15" ry="34" fill="#D6A94A" stroke="#6FB6DF" stroke-width="1.2" opacity="0.9" transform="translate(44 1236) rotate(180)"/><ellipse cx="0" cy="-34" rx="15" ry="34" fill="#D6A94A" stroke="#6FB6DF" stroke-width="1.2" opacity="0.9" transform="translate(44 1236) rotate(225)"/><ellipse cx="0" cy="-34" rx="15" ry="34" fill="#D6A94A" stroke="#6FB6DF" stroke-width="1.2" opacity="0.9" transform="translate(44 1236) rotate(270)"/><ellipse cx="0" cy="-34" rx="15" ry="34" fill="#D6A94A" stroke="#6FB6DF" stroke-width="1.2" opacity="0.9" transform="translate(44 1236) rotate(315)"/><circle cx="676" cy="1236" r="26" fill="#3F92C4"/><circle cx="676" cy="1236" r="16.12" fill="#6FB6DF" opacity="0.85"/><circle cx="676" cy="1236" r="7.280000000000001" fill="#D6A94A"/><ellipse cx="0" cy="-34" rx="15" ry="34" fill="#D6A94A" stroke="#6FB6DF" stroke-width="1.2" opacity="0.9" transform="translate(676 1236) rotate(0)"/><ellipse cx="0" cy="-34" rx="15" ry="34" fill="#D6A94A" stroke="#6FB6DF" stroke-width="1.2" opacity="0.9" transform="translate(676 1236) rotate(45)"/><ellipse cx="0" cy="-34" rx="15" ry="34" fill="#D6A94A" stroke="#6FB6DF" stroke-width="1.2" opacity="0.9" transform="translate(676 1236) rotate(90)"/><ellipse cx="0" cy="-34" rx="15" ry="34" fill="#D6A94A" stroke="#6FB6DF" stroke-width="1.2" opacity="0.9" transform="translate(676 1236) rotate(135)"/><ellipse cx="0" cy="-34" rx="15" ry="34" fill="#D6A94A" stroke="#6FB6DF" stroke-width="1.2" opacity="0.9" transform="translate(676 1236) rotate(180)"/><ellipse cx="0" cy="-34" rx="15" ry="34" fill="#D6A94A" stroke="#6FB6DF" stroke-width="1.2" opacity="0.9" transform="translate(676 1236) rotate(225)"/><ellipse cx="0" cy="-34" rx="15" ry="34" fill="#D6A94A" stroke="#6FB6DF" stroke-width="1.2" opacity="0.9" transform="translate(676 1236) rotate(270)"/><ellipse cx="0" cy="-34" rx="15" ry="34" fill="#D6A94A" stroke="#6FB6DF" stroke-width="1.2" opacity="0.9" transform="translate(676 1236) rotate(315)"/>
</svg>