<svg xmlns="http://www.w3.org/2000/svg" width="720" height="1280" viewBox="0 0 720 1280">
<defs>
  <linearGradient id="bgmandalapeacocktealclassic" x1="0" y1="0" x2="0" y2="1">
    <stop offset="0" stop-color="#E9F8F5"/><stop offset="1" stop-color="#B4E2DC"/>
  </linearGradient>
  
</defs>
<rect width="720" height="1280" fill="url(#bgmandalapeacocktealclassic)"/>
<rect x="18" y="18" width="684" height="1244" fill="none" stroke="#B98F22" stroke-width="2.5"/><rect x="26" y="26" width="668" height="1228" fill="none" stroke="#B98F22" stroke-width="1" opacity="0.6"/>
    <g opacity="0.9"><ellipse cx="0" cy="-190" rx="26" ry="190" fill="#128088" stroke="#B98F22" stroke-width="1.2" opacity="0.9" transform="translate(360 1010) rotate(0)"/><ellipse cx="0" cy="-190" rx="26" ry="190" fill="#128088" stroke="#B98F22" stroke-width="1.2" opacity="0.9" transform="translate(360 1010) rotate(22.5)"/><ellipse cx="0" cy="-190" rx="26" ry="190" fill="#128088" stroke="#B98F22" stroke-width="1.2" opacity="0.9" transform="translate(360 1010) rotate(45)"/><ellipse cx="0" cy="-190" rx="26" ry="190" fill="#128088" stroke="#B98F22" stroke-width="1.2" opacity="0.9" transform="translate(360 1010) rotate(67.5)"/><ellipse cx="0" cy="-190" rx="26" ry="190" fill="#128088" stroke="#B98F22" stroke-width="1.2" opacity="0.9" transform="translate(360 1010) rotate(90)"/><ellipse cx="0" cy="-190" rx="26" ry="190" fill="#128088" stroke="#B98F22" stroke-width="1.2" opacity="0.9" transform="translate(360 1010) rotate(112.5)"/><ellipse cx="0" cy="-190" rx="26" ry="190" fill="#128088" stroke="#B98F22" stroke-width="1.2" opacity="0.9" transform="translate(360 1010) rotate(135)"/><ellipse cx="0" cy="-190" rx="26" ry="190" fill="#128088" stroke="#B98F22" stroke-width="1.2" opacity="0.9" transform="translate(360 1010) rotate(157.5)"/><ellipse cx="0" cy="-190" rx="26" ry="190" fill="#128088" stroke="#B98F22" stroke-width="1.2" opacity="0.9" transform="translate(360 1010) rotate(180)"/><ellipse cx="0" cy="-190" rx="26" ry="190" fill="#128088" stroke="#B98F22" stroke-width="1.2" opacity="0.9" transform="translate(360 1010) rotate(202.5)"/><ellipse cx="0" cy="-190" rx="26" ry="190" fill="#128088" stroke="#B98F22" stroke-width="1.2" opacity="0.9" transform="translate(360 1010) rotate(225)"/><ellipse cx="0" cy="-190" rx="26" ry="190" fill="#128088" stroke="#B98F22" stroke-width="1.2" opacity="0.9" transform="translate(360 1010) rotate(247.5)"/><ellipse cx="0" cy="-190" rx="26" ry="190" fill="#128088" stroke="#B98F22" stroke-width="1.2" opacity="0.9" transform="translate(360 1010) rotate(270)"/><ellipse cx="0" cy="-190" rx="26" ry="190" fill="#128088" stroke="#B98F22" stroke-width="1.2" opacity="0.9" transform="translate(360 1010) rotate(292.5)"/><ellipse cx="0" cy="-190" rx="26" ry="190" fill="#128088" stroke="#B98F22" stroke-width="1.2" opacity="0.9" transform="translate(360 1010) rotate(315)"/><ellipse cx="0" cy="-190" rx="26" ry="190" fill="#128088" stroke="#B98F22" stroke-width="1.2" opacity="0.9" transform="translate(360 1010) rotate(337.5)"/>
    <ellipse cx="0" cy="-140" rx="20" ry="140" fill="#0F6C94" stroke="#B98F22" stroke-width="1.2" opacity="0.9" transform="translate(360 1010) rotate(8)"/><ellipse cx="0" cy="-140" rx="20" ry="140" fill="#0F6C94" stroke="#B98F22" stroke-width="1.2" opacity="0.9" transform="translate(360 1010) rotate(38)"/><ellipse cx="0" cy="-140" rx="20" ry="140" fill="#0F6C94" stroke="#B98F22" stroke-width="1.2" opacity="0.9" transform="translate(360 1010) rotate(68)"/><ellipse cx="0" cy="-140" rx="20" ry="140" fill="#0F6C94" stroke="#B98F22" stroke-width="1.2" opacity="0.9" transform="translate(360 1010) rotate(98)"/><ellipse cx="0" cy="-140" rx="20" ry="140" fill="#0F6C94" stroke="#B98F22" stroke-width="1.2" opacity="0.9" transform="translate(360 1010) rotate(128)"/><ellipse cx="0" cy="-140" rx="20" ry="140" fill="#0F6C94" stroke="#B98F22" stroke-width="1.2" opacity="0.9" transform="translate(360 1010) rotate(158)"/><ellipse cx="0" cy="-140" rx="20" ry="140" fill="#0F6C94" stroke="#B98F22" stroke-width="1.2" opacity="0.9" transform="translate(360 1010) rotate(188)"/><ellipse cx="0" cy="-140" rx="20" ry="140" fill="#0F6C94" stroke="#B98F22" stroke-width="1.2" opacity="0.9" transform="translate(360 1010) rotate(218)"/><ellipse cx="0" cy="-140" rx="20" ry="140" fill="#0F6C94" stroke="#B98F22" stroke-width="1.2" opacity="0.9" transform="translate(360 1010) rotate(248)"/><ellipse cx="0" cy="-140" rx="20" ry="140" fill="#0F6C94" stroke="#B98F22" stroke-width="1.2" opacity="0.9" transform="translate(360 1010) rotate(278)"/><ellipse cx="0" cy="-140" rx="20" ry="140" fill="#0F6C94" stroke="#B98F22" stroke-width="1.2" opacity="0.9" transform="translate(360 1010) rotate(308)"/><ellipse cx="0" cy="-140" rx="20" ry="140" fill="#0F6C94" stroke="#B98F22" stroke-width="1.2" opacity="0.9" transform="translate(360 1010) rotate(338)"/>
    <ellipse cx="0" cy="-92" rx="14" ry="92" fill="#B98F22" stroke="#08413D" stroke-width="1.2" opacity="0.9" transform="translate(360 1010) rotate(12)"/><ellipse cx="0" cy="-92" rx="14" ry="92" fill="#B98F22" stroke="#08413D" stroke-width="1.2" opacity="0.9" transform="translate(360 1010) rotate(48)"/><ellipse cx="0" cy="-92" rx="14" ry="92" fill="#B98F22" stroke="#08413D" stroke-width="1.2" opacity="0.9" transform="translate(360 1010) rotate(84)"/><ellipse cx="0" cy="-92" rx="14" ry="92" fill="#B98F22" stroke="#08413D" stroke-width="1.2" opacity="0.9" transform="translate(360 1010) rotate(120)"/><ellipse cx="0" cy="-92" rx="14" ry="92" fill="#B98F22" stroke="#08413D" stroke-width="1.2" opacity="0.9" transform="translate(360 1010) rotate(156)"/><ellipse cx="0" cy="-92" rx="14" ry="92" fill="#B98F22" stroke="#08413D" stroke-width="1.2" opacity="0.9" transform="translate(360 1010) rotate(192)"/><ellipse cx="0" cy="-92" rx="14" ry="92" fill="#B98F22" stroke="#08413D" stroke-width="1.2" opacity="0.9" transform="translate(360 1010) rotate(228)"/><ellipse cx="0" cy="-92" rx="14" ry="92" fill="#B98F22" stroke="#08413D" stroke-width="1.2" opacity="0.9" transform="translate(360 1010) rotate(264)"/><ellipse cx="0" cy="-92" rx="14" ry="92" fill="#B98F22" stroke="#08413D" stroke-width="1.2" opacity="0.9" transform="translate(360 1010) rotate(300)"/><ellipse cx="0" cy="-92" rx="14" ry="92" fill="#B98F22" stroke="#08413D" stroke-width="1.2" opacity="0.9" transform="translate(360 1010) rotate(336)"/>
    <circle cx="360" cy="1010" r="42" fill="#F4FCFB" stroke="#B98F22" stroke-width="2"/>
    <circle cx="360" cy="1010" r="16" fill="#128088"/></g>
    <g opacity="0.5"><ellipse cx="0" cy="-110" rx="16" ry="110" fill="#B98F22" stroke="#128088" stroke-width="1.2" opacity="0.9" transform="translate(360 130) rotate(0)"/><ellipse cx="0" cy="-110" rx="16" ry="110" fill="#B98F22" stroke="#128088" stroke-width="1.2" opacity="0.9" transform="translate(360 130) rotate(25.71428571428571)"/><ellipse cx="0" cy="-110" rx="16" ry="110" fill="#B98F22" stroke="#128088" stroke-width="1.2" opacity="0.9" transform="translate(360 130) rotate(51.42857142857142)"/><ellipse cx="0" cy="-110" rx="16" ry="110" fill="#B98F22" stroke="#128088" stroke-width="1.2" opacity="0.9" transform="translate(360 130) rotate(77.14285714285714)"/><ellipse cx="0" cy="-110" rx="16" ry="110" fill="#B98F22" stroke="#128088" stroke-width="1.2" opacity="0.9" transform="translate(360 130) rotate(102.85714285714285)"/><ellipse cx="0" cy="-110" rx="16" ry="110" fill="#B98F22" stroke="#128088" stroke-width="1.2" opacity="0.9" transform="translate(360 130) rotate(128.57142857142858)"/><ellipse cx="0" cy="-110" rx="16" ry="110" fill="#B98F22" stroke="#128088" stroke-width="1.2" opacity="0.9" transform="translate(360 130) rotate(154.28571428571428)"/><ellipse cx="0" cy="-110" rx="16" ry="110" fill="#B98F22" stroke="#128088" stroke-width="1.2" opacity="0.9" transform="translate(360 130) rotate(180)"/><ellipse cx="0" cy="-110" rx="16" ry="110" fill="#B98F22" stroke="#128088" stroke-width="1.2" opacity="0.9" transform="translate(360 130) rotate(205.7142857142857)"/><ellipse cx="0" cy="-110" rx="16" ry="110" fill="#B98F22" stroke="#128088" stroke-width="1.2" opacity="0.9" transform="translate(360 130) rotate(231.42857142857144)"/><ellipse cx="0" cy="-110" rx="16" ry="110" fill="#B98F22" stroke="#128088" stroke-width="1.2" opacity="0.9" transform="translate(360 130) rotate(257.14285714285717)"/><ellipse cx="0" cy="-110" rx="16" ry="110" fill="#B98F22" stroke="#128088" stroke-width="1.2" opacity="0.9" transform="translate(360 130) rotate(282.85714285714283)"/><ellipse cx="0" cy="-110" rx="16" ry="110" fill="#B98F22" stroke="#128088" stroke-width="1.2" opacity="0.9" transform="translate(360 130) rotate(308.57142857142856)"/><ellipse cx="0" cy="-110" rx="16" ry="110" fill="#B98F22" stroke="#128088" stroke-width="1.2" opacity="0.9" transform="translate(360 130) rotate(334.2857142857143)"/><circle cx="360" cy="130" r="30" fill="#F4FCFB"/></g>
    <circle cx="60" cy="1258" r="5" fill="#B98F22"/><circle cx="90" cy="1258" r="5" fill="#B98F22"/><circle cx="120" cy="1258" r="5" fill="#B98F22"/><circle cx="150" cy="1258" r="5" fill="#B98F22"/><circle cx="180" cy="1258" r="5" fill="#B98F22"/><circle cx="210" cy="1258" r="5" fill="#B98F22"/><circle cx="240" cy="1258" r="5" fill="#B98F22"/><circle cx="270" cy="1258" r="5" fill="#B98F22"/><circle cx="300" cy="1258" r="5" fill="#B98F22"/><circle cx="330" cy="1258" r="5" fill="#B98F22"/><circle cx="360" cy="1258" r="5" fill="#B98F22"/><circle cx="390" cy="1258" r="5" fill="#B98F22"/><circle cx="420" cy="1258" r="5" fill="#B98F22"/><circle cx="450" cy="1258" r="5" fill="#B98F22"/><circle cx="480" cy="1258" r="5" fill="#B98F22"/><circle cx="510" cy="1258" r="5" fill="#B98F22"/><circle cx="540" cy="1258" r="5" fill="#B98F22"/><circle cx="570" cy="1258" r="5" fill="#B98F22"/><circle cx="600" cy="1258" r="5" fill="#B98F22"/><circle cx="630" cy="1258" r="5" fill="#B98F22"/><circle cx="660" cy="1258" r="5" fill="#B98F22"/>

</svg>